<svg xmlns="http://www.w3.org/2000/svg" width="71" height="110" fill="none" viewBox="0 0 71 110"><path fill="#7510A7" fill-rule="evenodd" d="M29.6389 30.0678C22.5114 31.2838 17.3488 34.0468 15.152 37.8216C14.4912 38.9571 14.3816 39.5379 14.3766 41.9346C14.3706 44.5751 14.4245 44.8051 15.3774 46.2026C16.2306 47.4536 16.3829 47.9521 16.3754 49.4622C16.3659 51.278 16.6782 52.759 17.5849 55.1988C18.0593 56.4756 18.0555 56.6387 17.5311 57.696C16.8611 59.0459 15.6906 60.2669 14.2916 61.0751C13.6251 61.4599 13.2685 61.8977 13.2685 62.331C13.2685 63.1621 14.1906 63.9683 15.1413 63.9683C15.8301 63.9683 15.8562 64.0496 15.7228 65.7715C15.5842 67.5612 15.5912 67.5788 16.6496 68.1617C17.4029 68.5765 17.6176 68.8406 17.3812 69.0613C16.8514 69.5557 16.9899 70.7123 17.6759 71.5264C18.0672 71.9906 18.3096 72.7312 18.3165 73.4824C18.3297 74.8911 18.7642 75.7237 19.9325 76.5786C20.7025 77.1421 20.9509 77.1688 22.9232 76.8994C24.1063 76.7378 25.8532 76.3967 26.8055 76.1411C30.4586 75.1614 30.9255 75.0597 31.0867 75.2101C31.8423 75.9152 32.6485 84.9531 32.1382 86.9958C32.0444 87.3707 32.1923 87.5772 32.5972 87.6371C33.6849 87.7978 34.2065 88.5435 33.8649 89.4492C33.6002 90.1525 33.3908 90.2618 32.3072 90.2618C31.353 90.2618 30.9932 90.1222 30.793 89.6742C30.5566 89.1448 30.2912 89.3043 28.1073 91.29C24.6953 94.3921 16.3338 100.537 11.2807 103.655C10.4474 104.169 9.88073 104.69 10.0215 104.812C10.4402 105.174 15.1133 106.582 17.9907 107.212C21.2855 107.934 29.4012 108.247 32.6296 107.777C40.4748 106.635 47.21 104.317 53.0794 100.741C55.2664 99.409 60.4908 94.774 60.4908 94.1662C60.4908 93.9943 59.598 92.9132 58.5071 91.7639C56.3229 89.463 53.9848 86.7872 53.2459 85.7431C52.8168 85.1368 52.684 85.1062 51.908 85.4361C51.2516 85.7152 50.859 85.7229 50.2593 85.4678C49.2434 85.0357 49.1656 83.5368 50.1217 82.8144L50.7715 82.3235L49.9838 81.0044C48.5001 78.5196 46.4258 72.0946 46.2448 69.4235C46.1689 68.3027 46.2023 68.2616 47.3831 68.0257C49.8903 67.5248 53.9414 65.3699 56.1158 63.3807C58.6249 61.0851 59.9046 58.8579 60.6337 55.5179C61.0886 53.4338 61.1066 52.8524 60.7609 51.4108C60.0648 48.5088 57.9518 46.935 54.7454 46.9306C54.0963 46.9297 53.5648 46.8604 53.5648 46.7767C53.5648 46.6927 53.9477 45.9409 54.4158 45.1056C55.1531 43.7895 55.2686 43.2316 55.2815 40.9245C55.2948 38.5373 55.2072 38.1207 54.4328 36.8915C52.6802 34.1097 49.4445 32.2621 43.9463 30.9039C41.3022 30.2508 40.0067 30.1151 35.6204 30.032C32.7634 29.9779 30.0717 29.9941 29.6389 30.0678ZM48.1163 85.0075C48.9314 85.2117 49.3583 86.5713 48.8731 87.4177C48.4041 88.2359 47.1102 88.3851 46.3345 87.7106C45.5229 87.0049 45.5191 86.1656 46.3241 85.4144C47.0113 84.773 47.0992 84.7531 48.1163 85.0075ZM42.642 86.8615C44.2504 87.4321 43.701 89.8211 41.9617 89.8211C40.8816 89.8211 40.3413 89.3343 40.3473 88.3669C40.353 87.4943 40.6272 87.0381 41.287 86.8037C41.5468 86.7114 41.7854 86.6254 41.8175 86.6127C41.8496 86.6001 42.2205 86.7117 42.642 86.8615ZM38.2739 88.8137C39.0364 89.5256 38.8856 90.6173 37.9453 91.1922C37.2073 91.6434 37.0358 91.6508 36.2925 91.2627C35.2838 90.7363 35.0622 89.6775 35.8014 88.9157C36.4631 88.2329 37.6012 88.1862 38.2739 88.8137Z" clip-rule="evenodd"/><path fill="#7510A7" d="M35.2167 2.16422C35.2013 2.0569 35.2054 1.72582 35.2261 1.42864C35.2776 0.679785 35.9921 0.974019 36.2082 1.83284C36.315 2.25739 36.6834 2.60321 37.1357 2.70345C38.2004 2.93931 38.3364 3.59058 37.321 3.59058C36.4278 3.59058 35.9541 4.26513 36.4388 4.84741C36.6055 5.04789 36.935 5.84215 37.1706 6.61252C37.6715 8.25086 38.0676 8.3623 38.7181 7.04827C39.0962 6.28438 39.3594 6.10749 40.0529 6.152C40.6038 6.18738 40.9166 6.0612 40.9166 5.80352C40.9166 5.29024 41.9748 4.96593 42.8237 5.21889C43.2396 5.34271 43.6934 5.22655 44.0813 4.89694C44.6083 4.4494 44.8015 4.4323 45.5506 4.7681C46.0248 4.98097 46.8826 5.12366 47.4564 5.08533C48.295 5.02961 48.5347 5.14106 48.6776 5.65375C48.7988 6.08891 49.0344 6.24753 49.4198 6.15289C50.1447 5.97511 51.2813 6.71807 51.2813 7.37022C51.2813 7.64676 51.5992 8.00409 51.988 8.16418C52.4481 8.35375 52.7311 8.76385 52.7996 9.33964C52.8571 9.8261 53.1093 10.4384 53.3599 10.7005C53.6156 10.9682 53.7946 11.6791 53.7682 12.3221C53.7422 12.9518 53.8191 13.7458 53.9391 14.0866C54.0854 14.5029 53.9686 14.8832 53.5829 15.2467C53.2669 15.5439 52.9943 15.995 52.9767 16.2488C52.9591 16.5027 52.9237 16.9334 52.8982 17.2064C52.8728 17.4791 52.5691 17.7866 52.2236 17.8895C51.8426 18.003 51.5954 18.3356 51.5954 18.7348C51.5954 19.6505 51.0159 20.1007 49.8365 20.1007C48.8396 20.1007 48.8274 20.1187 48.2931 22.3732C47.997 23.623 47.653 25.3477 47.529 26.2056C47.4049 27.0635 47.2347 27.8301 47.1508 27.9088C47.067 27.9878 45.8066 27.8454 44.3498 27.5925C37.598 26.4202 33.1657 26.3958 28.0732 27.5022C26.6234 27.8174 25.4088 28.0388 25.374 27.9943C25.1686 27.7313 24.2873 24.7795 24.1173 23.786C24.0068 23.1374 23.7043 22.0504 23.4458 21.3705C23.0218 20.2558 22.8623 20.1252 21.8227 20.0438C20.8591 19.968 20.6178 19.8079 20.3528 19.0688C20.1784 18.5824 19.7871 18.011 19.4834 17.799C19.1486 17.5658 18.9309 17.0263 18.9309 16.4301C18.9309 15.8278 18.7484 15.3809 18.4598 15.2768C17.9023 15.076 17.8341 13.8776 18.3524 13.3911C18.6275 13.1328 18.619 12.9406 18.3172 12.5989C17.8831 12.108 18.1112 10.6663 18.6228 10.6663C18.7924 10.6663 18.9309 10.2902 18.9309 9.83052C18.9309 9.29984 19.2463 8.71697 19.7946 8.23376C20.2698 7.81511 20.9197 7.1208 21.2391 6.69065C21.5698 6.24517 22.0077 5.97629 22.2567 6.06592C22.497 6.1523 23.0473 5.89109 23.4798 5.48511C24.1381 4.86716 24.373 4.80083 24.9223 5.07678C25.4472 5.34036 25.7 5.3038 26.1821 4.89399C26.712 4.44409 26.8907 4.43053 27.6479 4.78255C28.1222 5.00308 28.9595 5.14754 29.5082 5.10332C30.2567 5.04347 30.5953 5.17968 30.8622 5.64786C31.0959 6.05737 31.41 6.21539 31.7746 6.1066C32.3601 5.93207 33.101 6.54943 33.5319 7.5707C33.748 8.08281 33.8184 8.02443 34.0659 7.12846C34.2229 6.56093 34.3674 5.89757 34.3872 5.65434C34.407 5.41111 34.6419 5.06057 34.9098 4.87542C35.3191 4.59239 35.3301 4.46355 34.9773 4.06465C34.7468 3.80403 34.2926 3.59058 33.9685 3.59058C33.0552 3.59058 33.2722 3.00506 34.3118 2.66483C34.825 2.49708 35.2321 2.27183 35.2167 2.16422Z"/><path fill="#fff" d="M50 13.4988C50 11.7389 48.3109 9.41612 46.4499 8.61628C45.1319 8.05022 42.6908 7.77989 41.555 8.21598C39.3738 9.05346 37.0552 12.7524 37.473 14.7279C37.6244 15.4436 37.1382 15.7042 36.6259 15.7042C35.7062 15.7042 35.741 17.6271 36.6651 17.8556C37.3648 18.0288 37.2047 18.6448 36.46 18.6448C36.1895 18.6448 36.012 18.9359 36.012 19.3799C36.012 20.0604 36.1221 20.1154 37.4885 20.1192C38.3008 20.1213 39.26 20.198 39.6206 20.2898C40.1627 20.4271 40.3651 20.2468 40.7863 19.2506C41.4322 17.7235 41.431 17.1745 40.7819 17.1745C40.3237 17.1745 40.3178 17.1183 40.7282 16.6599C40.9818 16.3767 41.3539 15.5987 41.555 14.9306C42.3222 12.3831 43.7517 12.9157 43.3277 15.5907C43.1953 16.4255 43.2398 16.8805 43.4533 16.8805C43.6345 16.8805 43.7831 17.0878 43.7831 17.3412C43.7831 17.6685 43.6025 17.7479 43.1614 17.6156C42.591 17.4445 42.5397 17.5627 42.5397 19.0524V20.6756L43.7054 20.9817C45.3156 21.4048 46.2699 21.3684 46.2699 20.8838C46.2699 20.3653 46.7918 19.4346 48.024 17.7559C49.1837 16.1759 50 14.4174 50 13.4988Z"/><path fill="#fff" d="M33.0918 11.8177C32.219 10.3277 31.0713 9.21262 29.8435 8.66126C28.6163 8.11049 25.8501 8.08667 24.5728 8.61627C22.4607 9.49168 21.0044 11.6742 21 13.9705C20.9981 14.9632 21.949 16.8337 23.4575 18.8036C23.9853 19.4932 24.4174 20.161 24.4174 20.288C24.4174 20.415 24.5514 20.852 24.7152 21.2593L25.0127 22L28.2815 20.949L28.2868 19.3561C28.2912 18.0564 28.1979 17.7703 27.7801 17.8003C27.3446 17.8314 27.2902 17.5894 27.4164 16.183C27.7229 12.7678 28.2349 12.327 29.0938 14.7391C29.3577 15.4802 29.763 16.3026 29.9946 16.5667C30.3548 16.9772 30.3322 17.1045 29.8373 17.4468C29.4002 17.7491 29.3421 17.9444 29.5998 18.2464C29.7876 18.466 30.0415 19.0909 30.1646 19.6349C30.3794 20.5835 30.4347 20.6168 31.5214 20.4468C32.145 20.3492 33.0393 20.268 33.5096 20.2662C34.5531 20.2624 34.7082 19.2814 33.7427 18.7927C33.4008 18.6195 33.121 18.3502 33.121 18.1943C33.121 18.0382 33.4008 17.9105 33.7427 17.9105C34.2479 17.9105 34.3644 17.7144 34.3644 16.864C34.3644 16.2885 34.2528 15.8827 34.1164 15.9624C33.9799 16.0421 33.6858 16.0006 33.4627 15.8701C33.1537 15.6895 33.1384 15.4884 33.3999 15.0267C33.9168 14.1128 33.8148 13.0527 33.0918 11.8177Z"/></svg>