<svg width="71" height="134" viewBox="0 0 71 134" fill="none" xmlns="http://www.w3.org/2000/svg">
<!-- <path d="M31.7614 133C31.6699 133 31.5098 132.96 31.281 132.88C31.0523 132.816 30.8388 132.72 30.6405 132.593C30.4423 132.465 30.3279 132.321 30.2974 132.161C30.2211 131.682 30.1601 131.13 30.1144 130.507C30.0839 129.868 30.0686 129.189 30.0686 128.47C30.0686 127.368 30.1068 126.225 30.183 125.043C30.2593 123.86 30.3508 122.742 30.4575 121.687C30.5795 120.632 30.7092 119.762 30.8464 119.075C30.7092 119.218 30.5566 119.378 30.3889 119.554C30.2211 119.714 30.1144 119.794 30.0686 119.794C30.0229 119.794 30 119.754 30 119.674C30 119.594 30.0763 119.386 30.2288 119.051C30.3813 118.699 30.5643 118.324 30.7778 117.924C30.9913 117.509 31.1819 117.149 31.3497 116.846C31.5174 116.542 31.6242 116.39 31.6699 116.39C31.7614 116.39 31.8987 116.446 32.0817 116.558C32.2647 116.654 32.4325 116.774 32.585 116.917C32.7527 117.061 32.8366 117.197 32.8366 117.325V117.349C32.4553 118.02 32.1503 118.827 31.9216 119.77C31.7081 120.696 31.5556 121.703 31.4641 122.79C31.3878 123.86 31.3497 124.955 31.3497 126.073C31.3497 126.696 31.3573 127.312 31.3725 127.919C31.4031 128.526 31.4336 129.117 31.4641 129.692C31.5098 129.213 31.5937 128.582 31.7157 127.799C31.8529 127.016 32.0054 126.177 32.1732 125.282C32.3562 124.372 32.5392 123.469 32.7222 122.574C32.9052 121.663 33.0806 120.84 33.2484 120.105C33.4161 119.37 33.5458 118.795 33.6373 118.379C33.8508 117.469 34.0338 116.774 34.1863 116.294C34.354 115.799 34.4989 115.463 34.6209 115.288C34.7429 115.096 34.842 115 34.9183 115C34.9336 115 35.0251 115.08 35.1928 115.24C35.3758 115.383 35.5512 115.567 35.719 115.791C35.8867 116.015 35.9706 116.246 35.9706 116.486C35.9706 116.502 35.963 116.526 35.9477 116.558C35.9477 116.574 35.9477 116.598 35.9477 116.63C35.9325 116.758 35.902 117.061 35.8562 117.541C35.8105 118.02 35.7647 118.595 35.719 119.266C35.6732 119.921 35.6351 120.593 35.6046 121.28C35.5741 121.951 35.5588 122.55 35.5588 123.077C35.5588 123.557 35.5741 124.132 35.6046 124.803C35.6503 125.474 35.7113 126.153 35.7876 126.84C35.8638 127.527 35.9477 128.142 36.0392 128.686C36.1307 129.229 36.2222 129.613 36.3137 129.836C36.3137 129.74 36.3519 129.493 36.4281 129.093C36.5196 128.678 36.634 128.166 36.7712 127.559C36.9085 126.952 37.0534 126.297 37.2059 125.594C37.3736 124.891 37.5338 124.204 37.6863 123.533C37.854 122.862 37.9989 122.262 38.1209 121.735C38.2429 121.208 38.3344 120.808 38.3954 120.537C38.5327 119.929 38.6623 119.482 38.7843 119.194C38.9063 118.907 39.0664 118.763 39.2647 118.763C39.5697 118.763 39.8519 118.947 40.1111 119.314C40.3856 119.682 40.5229 120.113 40.5229 120.609C40.5229 120.768 40.5153 120.936 40.5 121.112C40.5 121.272 40.5 121.439 40.5 121.615C40.5 122.254 40.5305 122.957 40.5915 123.724C40.6525 124.491 40.7364 125.226 40.8431 125.929C40.9499 126.617 41.0795 127.184 41.232 127.631C41.3998 128.079 41.5828 128.302 41.781 128.302C42.0403 128.302 42.3987 127.863 42.8562 126.984C42.963 126.792 43.085 126.513 43.2222 126.145C43.3747 125.762 43.5196 125.418 43.6569 125.115C43.7941 124.811 43.8856 124.659 43.9314 124.659C43.9771 124.659 44 124.755 44 124.947C44 125.154 43.9542 125.41 43.8627 125.714C43.7712 126.017 43.6645 126.313 43.5425 126.601C43.4357 126.872 43.3519 127.08 43.2908 127.224C42.8333 128.166 42.4063 128.83 42.0098 129.213C41.6285 129.597 41.2854 129.788 40.9804 129.788C40.6754 129.788 40.3932 129.628 40.134 129.309C39.9357 129.069 39.768 128.67 39.6307 128.111C39.5087 127.551 39.402 126.928 39.3105 126.241C39.219 125.554 39.1351 124.899 39.0588 124.276C38.9978 123.636 38.9368 123.109 38.8758 122.694C38.8148 122.278 38.7462 122.071 38.6699 122.071C38.6089 122.071 38.5251 122.27 38.4183 122.67C38.3115 123.053 38.1972 123.565 38.0752 124.204C37.9532 124.827 37.8312 125.498 37.7092 126.217C37.6024 126.936 37.4956 127.631 37.3889 128.302C37.2974 128.973 37.2211 129.549 37.1601 130.028C37.0991 130.491 37.0686 130.787 37.0686 130.915C37.0686 131.218 36.9848 131.426 36.817 131.538C36.6492 131.65 36.4281 131.706 36.1536 131.706C36.0926 131.706 36.024 131.706 35.9477 131.706C35.8715 131.706 35.7952 131.698 35.719 131.682C35.5054 131.666 35.3072 131.378 35.1242 130.819C34.9564 130.26 34.7963 129.541 34.6438 128.662C34.5065 127.767 34.3845 126.808 34.2778 125.786C34.1863 124.747 34.11 123.732 34.049 122.742C33.988 121.735 33.9423 120.856 33.9118 120.105C33.5915 121.08 33.3017 122.142 33.0425 123.293C32.7832 124.427 32.5621 125.57 32.3791 126.72C32.2113 127.871 32.0741 128.965 31.9673 130.004C31.8758 131.043 31.8301 131.953 31.8301 132.736C31.8301 132.864 31.8377 132.944 31.8529 132.976C31.8529 132.992 31.8224 133 31.7614 133Z" fill="#7510A7"/> -->
<!-- <path d="M11.2326 130C10.5659 130 9.85271 129.91 9.09302 129.729C8.33333 129.563 7.58915 129.329 6.86047 129.027C6.14729 128.711 5.50388 128.356 4.93023 127.964C4.37209 127.572 3.95349 127.15 3.67442 126.698C3.55039 126.698 3.41085 126.705 3.25581 126.72C3.10078 126.735 2.93798 126.743 2.76744 126.743C2.5814 126.743 2.34884 126.713 2.06977 126.652C1.7907 126.592 1.54264 126.487 1.32558 126.336C1.10853 126.185 1 125.981 1 125.725C1 125.604 1.08527 125.499 1.25581 125.408C1.44186 125.318 1.78295 125.273 2.27907 125.273C3.24031 125.273 3.90698 125.559 4.27907 126.132C4.7907 126.192 5.33333 126.238 5.90698 126.268C6.48062 126.298 7.06977 126.313 7.67442 126.313C8.29457 126.313 8.91473 126.298 9.53488 126.268C10.1705 126.238 10.7984 126.185 11.4186 126.11C11.0775 125.582 10.6899 125.054 10.2558 124.526C9.83721 123.998 9.50388 123.569 9.25581 123.237C8.68217 122.483 8.11628 121.706 7.55814 120.907C7 120.093 6.46512 119.173 5.95349 118.148C5.75194 117.756 5.65116 117.356 5.65116 116.949C5.65116 116.346 5.84496 115.78 6.23256 115.252C6.62016 114.71 7.10853 114.212 7.69768 113.76C8.28682 113.307 8.90698 112.915 9.55814 112.583C10.2248 112.237 10.8217 111.95 11.3488 111.724C11.907 111.498 12.4729 111.324 13.0465 111.204C13.6202 111.068 14.1705 111 14.6977 111C15.0078 111 15.3023 111.023 15.5814 111.068C15.969 111.128 16.3411 111.332 16.6977 111.679C17.0698 112.01 17.3798 112.41 17.6279 112.877C17.876 113.33 18 113.782 18 114.235C18 114.657 17.8915 115.147 17.6744 115.705C17.4729 116.248 17.2093 116.806 16.8837 117.379C16.5581 117.937 16.2093 118.464 15.8372 118.962C15.4651 119.444 15.1163 119.837 14.7907 120.138C14.4806 120.44 14.2326 120.59 14.0465 120.59C13.7829 120.59 13.5426 120.455 13.3256 120.183C13.124 119.912 13.0233 119.701 13.0233 119.55C13.0233 119.46 13.0465 119.407 13.093 119.392C13.5116 119.09 13.9535 118.683 14.4186 118.17C14.8837 117.658 15.3101 117.107 15.6977 116.519C16.1008 115.916 16.4264 115.328 16.6744 114.755C16.938 114.167 17.0698 113.662 17.0698 113.239C17.0698 112.757 16.8837 112.433 16.5116 112.267C16.155 112.086 15.7054 111.995 15.1628 111.995C14.6512 111.995 14.1085 112.078 13.5349 112.244C12.9612 112.395 12.4574 112.576 12.0233 112.787C10.6124 113.465 9.52713 114.121 8.76744 114.755C8.00775 115.373 7.48062 115.954 7.18605 116.496C6.90698 117.039 6.76744 117.537 6.76744 117.989C6.76744 118.457 7 119.083 7.46512 119.867C7.93023 120.636 8.72093 121.676 9.83721 122.988C10.2558 123.486 10.7054 123.991 11.186 124.504C11.6822 125.001 12.1318 125.484 12.5349 125.951C13.2636 125.831 13.938 125.68 14.5581 125.499C15.1938 125.318 15.7519 125.107 16.2326 124.865C16.2481 124.85 16.2713 124.843 16.3023 124.843C16.3488 124.843 16.3721 124.865 16.3721 124.911C16.3721 125.031 16.3178 125.122 16.2093 125.182C15.8682 125.423 15.4109 125.642 14.8372 125.838C14.2636 126.034 13.6124 126.208 12.8837 126.358C13.1938 126.72 13.4419 127.067 13.6279 127.399C13.814 127.715 13.907 128.002 13.907 128.258C13.907 128.877 13.6512 129.321 13.1395 129.593C12.6434 129.864 12.0078 130 11.2326 130ZM10.093 129.208C10.6977 129.208 11.1938 129.103 11.5814 128.892C11.9845 128.681 12.186 128.356 12.186 127.919C12.186 127.738 12.1395 127.535 12.0465 127.308C11.9535 127.067 11.8295 126.818 11.6744 126.562C10.2326 126.773 8.74419 126.879 7.2093 126.879C6.31008 126.879 5.44961 126.833 4.62791 126.743C5 127.225 5.48837 127.655 6.09302 128.032C6.71318 128.409 7.37209 128.703 8.06977 128.914C8.78295 129.11 9.45737 129.208 10.093 129.208Z" fill="#7510A7"/> -->
<!-- <path d="M60.6393 130C59.9848 130 59.4749 129.79 59.1096 129.37C58.7595 128.965 58.516 128.418 58.379 127.728C58.242 127.053 58.1735 126.311 58.1735 125.501C58.1735 124.976 58.1887 124.406 58.2192 123.791C58.2648 123.177 58.3257 122.532 58.4018 121.857C58.0822 121.947 57.7702 122.029 57.4658 122.104C57.1613 122.164 56.8569 122.209 56.5525 122.239C56.3546 122.239 56.1339 122.217 55.8904 122.172C55.6469 122.112 55.4414 122.029 55.274 121.924C55.0913 121.819 55 121.699 55 121.564C55 121.414 55.1065 121.279 55.3196 121.16C55.4718 121.07 55.7002 120.98 56.0046 120.89C56.3242 120.8 56.6134 120.725 56.8721 120.665C57.1309 120.605 57.2603 120.575 57.2603 120.575C57.2755 120.575 57.2907 120.575 57.3059 120.575C57.3212 120.56 57.3288 120.552 57.3288 120.552C57.344 120.552 57.3516 120.56 57.3516 120.575C57.3668 120.575 57.3744 120.575 57.3744 120.575C57.3744 120.635 57.2907 120.74 57.1233 120.89C56.9559 121.04 56.8721 121.152 56.8721 121.227C56.8721 121.257 56.895 121.272 56.9406 121.272C56.9863 121.272 57.0776 121.249 57.2146 121.204C57.4277 121.13 57.6408 121.055 57.8539 120.98C58.0822 120.89 58.3105 120.8 58.5388 120.71C58.6758 119.63 58.828 118.55 58.9954 117.47C59.1781 116.376 59.3683 115.341 59.5662 114.366C59.7641 113.376 59.9467 112.521 60.1142 111.802C60.0076 111.907 59.9011 112.072 59.7945 112.297C59.7032 112.521 59.6119 112.731 59.5205 112.926C59.4292 113.121 59.3379 113.219 59.2466 113.219C59.2161 113.219 59.2009 113.189 59.2009 113.129C59.2009 113.069 59.2466 112.911 59.3379 112.656C59.4292 112.401 59.551 112.109 59.7032 111.779C59.8554 111.449 60.0152 111.127 60.1827 110.812C60.3653 110.482 60.5403 110.212 60.7078 110.002C60.8904 109.792 61.0502 109.687 61.1872 109.687C61.3394 109.687 61.5145 109.747 61.7123 109.867C61.9102 109.987 62.0852 110.122 62.2374 110.272C62.4049 110.407 62.4886 110.519 62.4886 110.609C62.4886 110.654 62.481 110.684 62.4658 110.699C61.8874 111.629 61.347 112.874 60.8447 114.434C60.3425 115.978 59.9619 117.845 59.7032 120.035C59.688 120.08 59.6804 120.14 59.6804 120.215C60.5327 119.825 61.4003 119.39 62.2831 118.91C63.1811 118.415 64.0335 117.898 64.8402 117.358C65.6621 116.818 66.3927 116.271 67.032 115.716C67.6865 115.146 68.1963 114.584 68.5616 114.029C68.9422 113.474 69.1324 112.941 69.1324 112.431C69.1324 111.877 68.8889 111.404 68.4018 111.014C67.9148 110.624 67.2679 110.309 66.4612 110.07C65.6545 109.815 64.7717 109.627 63.8128 109.507C62.8539 109.387 61.9026 109.327 60.9589 109.327C60.1522 109.327 59.3912 109.357 58.6758 109.417C57.9756 109.462 57.382 109.485 56.895 109.485C56.5601 109.485 56.3927 109.432 56.3927 109.327C56.3927 109.267 56.4764 109.185 56.6438 109.08C57.3744 108.66 58.0594 108.375 58.6986 108.225C59.3379 108.075 59.9391 108 60.5023 108C61.0655 108 61.7504 108.06 62.5571 108.18C63.3638 108.285 64.1933 108.45 65.0457 108.675C65.9132 108.9 66.7199 109.185 67.4658 109.53C68.2116 109.86 68.8204 110.257 69.2922 110.722C69.7641 111.172 70 111.682 70 112.252C70 112.926 69.7565 113.684 69.2694 114.524C68.7823 115.348 68.0518 116.211 67.0776 117.11C66.6667 117.5 66.0654 117.965 65.274 118.505C64.4977 119.03 63.6149 119.562 62.6256 120.102C61.6362 120.627 60.6164 121.085 59.5662 121.474C59.551 121.819 59.5358 122.172 59.5205 122.532C59.5205 122.892 59.5205 123.244 59.5205 123.589C59.5205 125.014 59.5967 126.146 59.7489 126.986C59.9011 127.84 60.1142 128.448 60.3881 128.808C60.6621 129.168 60.9741 129.348 61.3242 129.348C61.583 129.348 61.796 129.295 61.9635 129.19C62.1461 129.1 62.2831 129.055 62.3744 129.055C62.4505 129.055 62.4886 129.093 62.4886 129.168C62.4886 129.198 62.4277 129.28 62.3059 129.415C62.1842 129.565 61.9863 129.7 61.7123 129.82C61.4384 129.94 61.0807 130 60.6393 130Z" fill="#7510A7"/> -->
<path fill-rule="evenodd" clip-rule="evenodd" d="M29.6389 30.0678C22.5114 31.2838 17.3488 34.0468 15.152 37.8216C14.4912 38.9571 14.3816 39.5379 14.3766 41.9346C14.3706 44.5751 14.4245 44.8051 15.3774 46.2026C16.2306 47.4536 16.3829 47.9521 16.3754 49.4622C16.3659 51.278 16.6782 52.759 17.5849 55.1988C18.0593 56.4756 18.0555 56.6387 17.5311 57.696C16.8611 59.0459 15.6906 60.2669 14.2916 61.0751C13.6251 61.4599 13.2685 61.8977 13.2685 62.331C13.2685 63.1621 14.1906 63.9683 15.1413 63.9683C15.8301 63.9683 15.8562 64.0496 15.7228 65.7715C15.5842 67.5612 15.5912 67.5788 16.6496 68.1617C17.4029 68.5765 17.6176 68.8406 17.3812 69.0613C16.8514 69.5557 16.9899 70.7123 17.6759 71.5264C18.0672 71.9906 18.3096 72.7312 18.3165 73.4824C18.3297 74.8911 18.7642 75.7237 19.9325 76.5786C20.7025 77.1421 20.9509 77.1688 22.9232 76.8994C24.1063 76.7378 25.8532 76.3967 26.8055 76.1411C30.4586 75.1614 30.9255 75.0597 31.0867 75.2101C31.8423 75.9152 32.6485 84.9531 32.1382 86.9958C32.0444 87.3707 32.1923 87.5772 32.5972 87.6371C33.6849 87.7978 34.2065 88.5435 33.8649 89.4492C33.6002 90.1525 33.3908 90.2618 32.3072 90.2618C31.353 90.2618 30.9932 90.1222 30.793 89.6742C30.5566 89.1448 30.2912 89.3043 28.1073 91.29C24.6953 94.3921 16.3338 100.537 11.2807 103.655C10.4474 104.169 9.88073 104.69 10.0215 104.812C10.4402 105.174 15.1133 106.582 17.9907 107.212C21.2855 107.934 29.4012 108.247 32.6296 107.777C40.4748 106.635 47.21 104.317 53.0794 100.741C55.2664 99.409 60.4908 94.774 60.4908 94.1662C60.4908 93.9943 59.598 92.9132 58.5071 91.7639C56.3229 89.463 53.9848 86.7872 53.2459 85.7431C52.8168 85.1368 52.684 85.1062 51.908 85.4361C51.2516 85.7152 50.859 85.7229 50.2593 85.4678C49.2434 85.0357 49.1656 83.5368 50.1217 82.8144L50.7715 82.3235L49.9838 81.0044C48.5001 78.5196 46.4258 72.0946 46.2448 69.4235C46.1689 68.3027 46.2023 68.2616 47.3831 68.0257C49.8903 67.5248 53.9414 65.3699 56.1158 63.3807C58.6249 61.0851 59.9046 58.8579 60.6337 55.5179C61.0886 53.4338 61.1066 52.8524 60.7609 51.4108C60.0648 48.5088 57.9518 46.935 54.7454 46.9306C54.0963 46.9297 53.5648 46.8604 53.5648 46.7767C53.5648 46.6927 53.9477 45.9409 54.4158 45.1056C55.1531 43.7895 55.2686 43.2316 55.2815 40.9245C55.2948 38.5373 55.2072 38.1207 54.4328 36.8915C52.6802 34.1097 49.4445 32.2621 43.9463 30.9039C41.3022 30.2508 40.0067 30.1151 35.6204 30.032C32.7634 29.9779 30.0717 29.9941 29.6389 30.0678ZM48.1163 85.0075C48.9314 85.2117 49.3583 86.5713 48.8731 87.4177C48.4041 88.2359 47.1102 88.3851 46.3345 87.7106C45.5229 87.0049 45.5191 86.1656 46.3241 85.4144C47.0113 84.773 47.0992 84.7531 48.1163 85.0075ZM42.642 86.8615C44.2504 87.4321 43.701 89.8211 41.9617 89.8211C40.8816 89.8211 40.3413 89.3343 40.3473 88.3669C40.353 87.4943 40.6272 87.0381 41.287 86.8037C41.5468 86.7114 41.7854 86.6254 41.8175 86.6127C41.8496 86.6001 42.2205 86.7117 42.642 86.8615ZM38.2739 88.8137C39.0364 89.5256 38.8856 90.6173 37.9453 91.1922C37.2073 91.6434 37.0358 91.6508 36.2925 91.2627C35.2838 90.7363 35.0622 89.6775 35.8014 88.9157C36.4631 88.2329 37.6012 88.1862 38.2739 88.8137Z" fill="#7510A7"/>
<path d="M35.2167 2.16422C35.2013 2.0569 35.2054 1.72582 35.2261 1.42864C35.2776 0.679785 35.9921 0.974019 36.2082 1.83284C36.315 2.25739 36.6834 2.60321 37.1357 2.70345C38.2004 2.93931 38.3364 3.59058 37.321 3.59058C36.4278 3.59058 35.9541 4.26513 36.4388 4.84741C36.6055 5.04789 36.935 5.84215 37.1706 6.61252C37.6715 8.25086 38.0676 8.3623 38.7181 7.04827C39.0962 6.28438 39.3594 6.10749 40.0529 6.152C40.6038 6.18738 40.9166 6.0612 40.9166 5.80352C40.9166 5.29024 41.9748 4.96593 42.8237 5.21889C43.2396 5.34271 43.6934 5.22655 44.0813 4.89694C44.6083 4.4494 44.8015 4.4323 45.5506 4.7681C46.0248 4.98097 46.8826 5.12366 47.4564 5.08533C48.295 5.02961 48.5347 5.14106 48.6776 5.65375C48.7988 6.08891 49.0344 6.24753 49.4198 6.15289C50.1447 5.97511 51.2813 6.71807 51.2813 7.37022C51.2813 7.64676 51.5992 8.00409 51.988 8.16418C52.4481 8.35375 52.7311 8.76385 52.7996 9.33964C52.8571 9.8261 53.1093 10.4384 53.3599 10.7005C53.6156 10.9682 53.7946 11.6791 53.7682 12.3221C53.7422 12.9518 53.8191 13.7458 53.9391 14.0866C54.0854 14.5029 53.9686 14.8832 53.5829 15.2467C53.2669 15.5439 52.9943 15.995 52.9767 16.2488C52.9591 16.5027 52.9237 16.9334 52.8982 17.2064C52.8728 17.4791 52.5691 17.7866 52.2236 17.8895C51.8426 18.003 51.5954 18.3356 51.5954 18.7348C51.5954 19.6505 51.0159 20.1007 49.8365 20.1007C48.8396 20.1007 48.8274 20.1187 48.2931 22.3732C47.997 23.623 47.653 25.3477 47.529 26.2056C47.4049 27.0635 47.2347 27.8301 47.1508 27.9088C47.067 27.9878 45.8066 27.8454 44.3498 27.5925C37.598 26.4202 33.1657 26.3958 28.0732 27.5022C26.6234 27.8174 25.4088 28.0388 25.374 27.9943C25.1686 27.7313 24.2873 24.7795 24.1173 23.786C24.0068 23.1374 23.7043 22.0504 23.4458 21.3705C23.0218 20.2558 22.8623 20.1252 21.8227 20.0438C20.8591 19.968 20.6178 19.8079 20.3528 19.0688C20.1784 18.5824 19.7871 18.011 19.4834 17.799C19.1486 17.5658 18.9309 17.0263 18.9309 16.4301C18.9309 15.8278 18.7484 15.3809 18.4598 15.2768C17.9023 15.076 17.8341 13.8776 18.3524 13.3911C18.6275 13.1328 18.619 12.9406 18.3172 12.5989C17.8831 12.108 18.1112 10.6663 18.6228 10.6663C18.7924 10.6663 18.9309 10.2902 18.9309 9.83052C18.9309 9.29984 19.2463 8.71697 19.7946 8.23376C20.2698 7.81511 20.9197 7.1208 21.2391 6.69065C21.5698 6.24517 22.0077 5.97629 22.2567 6.06592C22.497 6.1523 23.0473 5.89109 23.4798 5.48511C24.1381 4.86716 24.373 4.80083 24.9223 5.07678C25.4472 5.34036 25.7 5.3038 26.1821 4.89399C26.712 4.44409 26.8907 4.43053 27.6479 4.78255C28.1222 5.00308 28.9595 5.14754 29.5082 5.10332C30.2567 5.04347 30.5953 5.17968 30.8622 5.64786C31.0959 6.05737 31.41 6.21539 31.7746 6.1066C32.3601 5.93207 33.101 6.54943 33.5319 7.5707C33.748 8.08281 33.8184 8.02443 34.0659 7.12846C34.2229 6.56093 34.3674 5.89757 34.3872 5.65434C34.407 5.41111 34.6419 5.06057 34.9098 4.87542C35.3191 4.59239 35.3301 4.46355 34.9773 4.06465C34.7468 3.80403 34.2926 3.59058 33.9685 3.59058C33.0552 3.59058 33.2722 3.00506 34.3118 2.66483C34.825 2.49708 35.2321 2.27183 35.2167 2.16422Z" fill="#7510A7"/>
<path d="M50 13.4988C50 11.7389 48.3109 9.41612 46.4499 8.61628C45.1319 8.05022 42.6908 7.77989 41.555 8.21598C39.3738 9.05346 37.0552 12.7524 37.473 14.7279C37.6244 15.4436 37.1382 15.7042 36.6259 15.7042C35.7062 15.7042 35.741 17.6271 36.6651 17.8556C37.3648 18.0288 37.2047 18.6448 36.46 18.6448C36.1895 18.6448 36.012 18.9359 36.012 19.3799C36.012 20.0604 36.1221 20.1154 37.4885 20.1192C38.3008 20.1213 39.26 20.198 39.6206 20.2898C40.1627 20.4271 40.3651 20.2468 40.7863 19.2506C41.4322 17.7235 41.431 17.1745 40.7819 17.1745C40.3237 17.1745 40.3178 17.1183 40.7282 16.6599C40.9818 16.3767 41.3539 15.5987 41.555 14.9306C42.3222 12.3831 43.7517 12.9157 43.3277 15.5907C43.1953 16.4255 43.2398 16.8805 43.4533 16.8805C43.6345 16.8805 43.7831 17.0878 43.7831 17.3412C43.7831 17.6685 43.6025 17.7479 43.1614 17.6156C42.591 17.4445 42.5397 17.5627 42.5397 19.0524V20.6756L43.7054 20.9817C45.3156 21.4048 46.2699 21.3684 46.2699 20.8838C46.2699 20.3653 46.7918 19.4346 48.024 17.7559C49.1837 16.1759 50 14.4174 50 13.4988Z" fill="white"/>
<path d="M33.0918 11.8177C32.219 10.3277 31.0713 9.21262 29.8435 8.66126C28.6163 8.11049 25.8501 8.08667 24.5728 8.61627C22.4607 9.49168 21.0044 11.6742 21 13.9705C20.9981 14.9632 21.949 16.8337 23.4575 18.8036C23.9853 19.4932 24.4174 20.161 24.4174 20.288C24.4174 20.415 24.5514 20.852 24.7152 21.2593L25.0127 22L28.2815 20.949L28.2868 19.3561C28.2912 18.0564 28.1979 17.7703 27.7801 17.8003C27.3446 17.8314 27.2902 17.5894 27.4164 16.183C27.7229 12.7678 28.2349 12.327 29.0938 14.7391C29.3577 15.4802 29.763 16.3026 29.9946 16.5667C30.3548 16.9772 30.3322 17.1045 29.8373 17.4468C29.4002 17.7491 29.3421 17.9444 29.5998 18.2464C29.7876 18.466 30.0415 19.0909 30.1646 19.6349C30.3794 20.5835 30.4347 20.6168 31.5214 20.4468C32.145 20.3492 33.0393 20.268 33.5096 20.2662C34.5531 20.2624 34.7082 19.2814 33.7427 18.7927C33.4008 18.6195 33.121 18.3502 33.121 18.1943C33.121 18.0382 33.4008 17.9105 33.7427 17.9105C34.2479 17.9105 34.3644 17.7144 34.3644 16.864C34.3644 16.2885 34.2528 15.8827 34.1164 15.9624C33.9799 16.0421 33.6858 16.0006 33.4627 15.8701C33.1537 15.6895 33.1384 15.4884 33.3999 15.0267C33.9168 14.1128 33.8148 13.0527 33.0918 11.8177Z" fill="white"/>
</svg>