<svg xmlns="http://www.w3.org/2000/svg" width="555" height="355" fill="none" viewBox="0 0 555 355"><path fill="#FCF4FF" d="M144.927 52.9448C91.8459 82.0541 -53.6106 84.8347 20.7334 151.503C30.0953 160.744 22.0995 150.193 29.4286 161.374C42.9743 182.038 60.8832 224.791 71.1655 247.205C82.956 272.907 103.504 298.791 125.728 315.514C158.945 340.509 204.038 367.229 246.745 348.973C299.135 326.576 332.814 267.531 371.865 228.34C410.36 189.708 440.519 153.395 496.324 138.42C526.051 130.443 544.357 115.848 551.404 84.8347C555.992 64.641 556.967 36.7102 549.683 17.0032C543.161 -0.641337 525.124 -2.29378 509.035 1.97307C481.898 9.16966 457.32 11.9709 429.196 10.8604C387.181 9.20152 344.601 6.52591 302.619 9.81487C247.664 14.1201 193.707 26.1938 144.927 52.9448Z"/></svg>