<svg xmlns="http://www.w3.org/2000/svg" width="444" height="420" fill="none" viewBox="0 0 444 420"><path fill="#FCF4FF" d="M222.1 6.18227C157.956 24.8679 150.445 73.5921 93.0572 103.728C93.0572 112.538 34.4565 134.064 28.1003 136.816C8.42875 145.334 -3.9861 169.571 1.16944 179.67C16.5444 209.786 37.8228 240.923 58.0467 268.654C77.2781 295.023 86.073 325.664 101.713 353.824C129.43 403.729 192.161 426.207 251.346 418.528C315.161 410.248 400.926 392.476 429.07 332.595C445.844 296.907 445.026 254.281 442.838 216.28C441.158 187.115 441.198 156.431 434.355 127.805C426.436 94.68 401.964 51.0452 366.352 37.2956C303.329 12.9621 284.03 -11.8587 222.1 6.18227Z"/></svg>