<svg width="410" height="707" viewBox="0 0 410 707" fill="none" xmlns="http://www.w3.org/2000/svg">
<path d="M205.09 211.143C176.012 122.486 51.6349 42.9251 0 0C6.9653 0 43.5 10.5 43.5 10.5C47.5562 11.4014 77.6832 23.8512 81.893 26.1901C98.055 35.1689 114.618 42.5115 131.604 50.297C148.235 57.9194 175.487 72.2353 188 86C198.559 97.6152 201.663 99.0767 215 107.5C238.214 122.162 259.73 153.711 278.608 173.41C299.903 195.631 322.494 220.574 337.303 247.678C351.391 273.461 361.504 302.047 372.79 329.132C398.737 391.406 412.043 454.131 408.726 521.688C405.92 578.827 392.586 673.556 330.865 698.971C307.214 708.71 278.788 707.128 253.902 705.11C232.723 703.393 205.55 702.644 188.918 687.292C176.494 675.823 165.198 656.822 162.416 640.126C159.662 623.605 170.394 610.328 177.539 596.554C204.772 544.056 205.902 474.523 211.977 416.576C219.202 347.663 222.192 279.103 205.09 211.143Z" fill="#F9EAFF"/>
</svg>
