<svg xmlns="http://www.w3.org/2000/svg" width="398" height="741" fill="none" viewBox="0 0 398 741"><path fill="#F9EAFF" d="M153.933 532.542C217.011 396.619 172.326 242.417 143.475 102.746C138.301 92.2997 125.134 75.8755 115.061 69.2698C96.1252 56.8509 102.793 68.2023 86.8814 52.0505C79.0892 44.1404 50.6381 18.8775 58.9273 4.50001C63.4058 -3.26791 78.1708 1.75117 83.9971 3.73173L84.0674 3.75561C106.047 11.2266 127.777 25.1528 146.693 38.4035C190.689 69.2222 234.222 106.656 272.056 144.508C296.409 168.874 315.888 198.263 336.371 225.84C352.918 248.117 368.2 271.256 378.541 297.152C391.696 330.098 399.504 367.003 397.003 402.519C394.288 441.057 388.413 487.482 372.057 522.783C353.563 562.701 316.376 596.356 282.58 623.007C248.939 649.535 211.618 670.208 173.023 688.475C140.937 703.661 107.846 717.195 74.18 728.492C56.1222 734.552 33.4561 743.543 13.8181 739.381C-5.36191 735.315 -1.17711 706.246 6.6197 693.956C10.896 687.216 17.6956 682.778 24.0889 678.334C38.2877 668.463 52.0436 658.397 64.9064 646.765C100.295 614.764 133.703 576.134 153.933 532.542Z"/></svg>