<svg width="509" height="409" viewBox="0 0 509 409" fill="none" xmlns="http://www.w3.org/2000/svg">
<path d="M383.811 16.9062C276.163 -20.8253 163.721 16.3833 163.721 16.3833C163.721 16.3833 72.7406 40.3276 47.3357 112.877C28.4779 166.729 3.94938 164.379 0.272609 224.514C-4.05428 295.282 43.4135 397.095 122.211 407.805C162.137 413.232 203.121 399.421 238.066 381.658C295.289 352.57 347.328 313.69 395.846 272.232C427.827 244.905 466.5 219.672 493.053 186.862C506.886 169.769 513.184 148.381 506.014 127.116C497.306 101.292 467.837 81.8311 448.88 63.3173C428.992 43.8951 410.703 26.3324 383.811 16.9062Z" fill="#FCF4FF"/>
</svg>
