<svg width="426" height="480" viewBox="0 0 426 480" fill="none" xmlns="http://www.w3.org/2000/svg">
<path d="M181.031 477.747C293.079 456.37 371.671 367.764 371.671 367.764C371.671 367.764 438.354 301.401 423.926 225.898C413.216 169.854 435.613 159.579 408.619 105.717C376.852 42.3317 284.706 -21.9181 211.172 8.35609C173.913 23.6957 145.391 56.2063 124.077 89.1062C89.1745 142.98 63.6702 202.723 42.5045 262.929C28.553 302.614 7.7622 343.845 1.25701 385.55C-2.13194 407.276 3.15218 428.938 20.0248 443.734C40.5149 461.702 75.7702 463.749 101.458 470.251C128.406 477.072 153.039 483.087 181.031 477.747Z" fill="#FCF4FF"/>
</svg>
