<svg width="271" height="475" viewBox="0 0 271 475" fill="none" xmlns="http://www.w3.org/2000/svg">
<path d="M91.9272 183.706C70.5582 255.737 44.9998 248.139 17.7861 318.121C10.5646 318.121 2.77764 381.295 0.713429 388.804C-5.28712 410.634 28.0539 427.189 44.9343 430.715C60.3447 433.934 76.3383 427.815 91.9272 430.715C102.453 432.673 109.902 441.184 117.272 448.003C129.449 459.268 146.869 473.435 164.001 474.851C190.854 477.072 229.325 453.992 243.598 433.072C268.203 397.008 266.072 345.709 259.57 304.722C251.412 253.29 229.007 200.045 243.466 147.558C252.088 116.263 273.987 92.0073 270.659 57.7128C267.526 25.4332 239.119 -6.46426 203.733 1.13385C168.627 8.67206 135.924 40.9294 121.76 72.6433C106.446 106.931 102.553 147.887 91.9272 183.706Z" fill="#FCF4FF"/>
</svg>
