<svg xmlns="http://www.w3.org/2000/svg" width="60" height="25" fill="none" viewBox="0 0 60 25"><mask id="path-1-outside-1_27_58" width="60" height="25" x="0" y="0" fill="#000" maskUnits="userSpaceOnUse"><rect width="60" height="25" fill="#fff"/><path d="M11.3603 20.3976C10.6853 20.3976 9.96326 20.3052 9.19408 20.1205C8.4249 19.9511 7.67142 19.7125 6.93364 19.4046C6.21156 19.0813 5.56011 18.7195 4.97931 18.3193C4.4142 17.919 3.99037 17.488 3.70781 17.0261C3.58223 17.0261 3.44096 17.0338 3.28398 17.0492C3.12701 17.0646 2.96218 17.0723 2.78951 17.0723C2.60114 17.0723 2.36568 17.0415 2.08313 16.9799C1.80057 16.9183 1.54941 16.8106 1.32965 16.6566C1.10988 16.5027 1 16.2948 1 16.0331C1 15.91 1.08634 15.8022 1.25901 15.7098C1.44738 15.6175 1.79272 15.5713 2.29504 15.5713C3.26828 15.5713 3.94328 15.8638 4.32002 16.4488C4.83803 16.5104 5.38744 16.5566 5.96825 16.5873C6.54906 16.6181 7.14556 16.6335 7.75776 16.6335C8.38566 16.6335 9.01356 16.6181 9.64146 16.5873C10.2851 16.5566 10.9208 16.5027 11.5487 16.4257C11.2034 15.8869 10.8109 15.3481 10.3714 14.8092C9.94756 14.2704 9.61006 13.8317 9.3589 13.493C8.7781 12.7232 8.20514 11.9304 7.64003 11.1145C7.07492 10.2831 6.53336 9.34404 6.01534 8.29719C5.81127 7.89692 5.70924 7.48896 5.70924 7.07329C5.70924 6.4575 5.90546 5.88019 6.2979 5.34137C6.69033 4.78715 7.1848 4.27912 7.78131 3.81727C8.37781 3.35542 9.00571 2.95515 9.665 2.61647C10.34 2.26238 10.9443 1.96988 11.4781 1.73896C12.0432 1.50803 12.6161 1.33099 13.1969 1.20783C13.7777 1.06928 14.335 1 14.8687 1C15.1827 1 15.4809 1.02309 15.7635 1.06928C16.1559 1.13086 16.5326 1.33869 16.8937 1.69277C17.2704 2.03146 17.5844 2.43942 17.8355 2.91667C18.0867 3.37851 18.2123 3.84036 18.2123 4.30221C18.2123 4.73327 18.1024 5.2336 17.8826 5.80321C17.6786 6.35743 17.4117 6.92704 17.0821 7.51205C16.7524 8.08166 16.3992 8.62048 16.0225 9.12851C15.6457 9.62115 15.2925 10.0214 14.9629 10.3293C14.6489 10.6372 14.3978 10.7912 14.2094 10.7912C13.9426 10.7912 13.6993 10.6526 13.4795 10.3755C13.2754 10.0984 13.1734 9.88286 13.1734 9.72892C13.1734 9.63655 13.1969 9.58266 13.244 9.56727C13.6679 9.25937 14.1152 8.84371 14.5862 8.32028C15.0571 7.79685 15.4888 7.23494 15.8812 6.63454C16.2893 6.01874 16.619 5.41834 16.8701 4.83333C17.137 4.23293 17.2704 3.7172 17.2704 3.28615C17.2704 2.79351 17.0821 2.46252 16.7053 2.29317C16.3443 2.10843 15.889 2.01606 15.3396 2.01606C14.8216 2.01606 14.2722 2.10074 13.6914 2.27008C13.1106 2.42403 12.6004 2.60877 12.1609 2.8243C10.7324 3.51707 9.63361 4.18675 8.86443 4.83333C8.09526 5.46453 7.56154 6.05723 7.26329 6.61145C6.98074 7.16566 6.83946 7.6737 6.83946 8.13554C6.83946 8.61278 7.07492 9.25167 7.54584 10.0522C8.01677 10.8373 8.81734 11.8996 9.94756 13.239C10.3714 13.747 10.8266 14.2627 11.3132 14.7861C11.8156 15.2942 12.2708 15.7868 12.6789 16.2641C13.4167 16.1409 14.0995 15.9869 14.7274 15.8022C15.371 15.6175 15.9361 15.4019 16.4228 15.1556C16.4385 15.1402 16.462 15.1325 16.4934 15.1325C16.5405 15.1325 16.564 15.1556 16.564 15.2018C16.564 15.325 16.5091 15.4173 16.3992 15.4789C16.0539 15.7252 15.5908 15.9485 15.01 16.1486C14.4292 16.3487 13.7699 16.5258 13.0321 16.6797C13.3461 17.0492 13.5972 17.4033 13.7856 17.742C13.974 18.0653 14.0681 18.3578 14.0681 18.6195C14.0681 19.2507 13.8091 19.7048 13.2911 19.9819C12.7888 20.259 12.1452 20.3976 11.3603 20.3976ZM10.2066 19.5894C10.8188 19.5894 11.3211 19.4816 11.7135 19.2661C12.1217 19.0505 12.3257 18.7195 12.3257 18.2731C12.3257 18.0884 12.2786 17.8805 12.1844 17.6496C12.0903 17.4033 11.9647 17.1493 11.8077 16.8876C10.3478 17.1031 8.84089 17.2108 7.28684 17.2108C6.37638 17.2108 5.50517 17.1647 4.67321 17.0723C5.04995 17.5649 5.54442 18.0037 6.15662 18.3886C6.78452 18.7734 7.45166 19.0736 8.15805 19.2892C8.88013 19.4893 9.56297 19.5894 10.2066 19.5894Z"/><path d="M25.6347 20.0974C25.5405 20.0974 25.3757 20.0589 25.1402 19.9819C24.9047 19.9203 24.685 19.828 24.4809 19.7048C24.2768 19.5817 24.1591 19.4431 24.1277 19.2892C24.0492 18.8273 23.9864 18.2962 23.9393 17.6958C23.9079 17.08 23.8922 16.4257 23.8922 15.7329C23.8922 14.6707 23.9315 13.5699 24.01 12.4307C24.0885 11.2915 24.1826 10.2139 24.2925 9.19779C24.4181 8.18173 24.5515 7.3427 24.6928 6.68072C24.5515 6.81928 24.3946 6.97323 24.2219 7.14257C24.0492 7.29652 23.9393 7.37349 23.8922 7.37349C23.8451 7.37349 23.8216 7.33501 23.8216 7.25803C23.8216 7.18106 23.9001 6.98092 24.0571 6.65763C24.214 6.31894 24.4024 5.95716 24.6222 5.57229C24.8419 5.17202 25.0382 4.82564 25.2108 4.53313C25.3835 4.24063 25.4934 4.09438 25.5405 4.09438C25.6347 4.09438 25.7759 4.14826 25.9643 4.25603C26.1527 4.34839 26.3254 4.46386 26.4823 4.60241C26.655 4.74096 26.7413 4.87182 26.7413 4.99498V5.01807C26.3489 5.66466 26.0349 6.4421 25.7995 7.3504C25.5797 8.24331 25.4227 9.21319 25.3286 10.26C25.2501 11.2915 25.2108 12.3461 25.2108 13.4237C25.2108 14.0241 25.2187 14.6168 25.2344 15.2018C25.2658 15.7868 25.2972 16.3564 25.3286 16.9106C25.3757 16.4488 25.462 15.8407 25.5876 15.0863C25.7288 14.332 25.8858 13.5238 26.0585 12.6616C26.2469 11.7841 26.4352 10.9143 26.6236 10.0522C26.812 9.1747 26.9925 8.38186 27.1652 7.6737C27.3378 6.96553 27.4713 6.41131 27.5655 6.01104C27.7852 5.13353 27.9736 4.46386 28.1306 4.00201C28.3032 3.52477 28.4524 3.20147 28.5779 3.03213C28.7035 2.84739 28.8056 2.75502 28.884 2.75502C28.8997 2.75502 28.9939 2.832 29.1666 2.98594C29.355 3.1245 29.5355 3.30154 29.7082 3.51707C29.8808 3.7326 29.9672 3.95582 29.9672 4.18675C29.9672 4.20214 29.9593 4.22523 29.9436 4.25603C29.9436 4.27142 29.9436 4.29451 29.9436 4.3253C29.9279 4.44846 29.8965 4.74096 29.8494 5.20281C29.8023 5.66466 29.7552 6.21888 29.7082 6.86546C29.6611 7.49665 29.6218 8.14324 29.5904 8.80522C29.559 9.45181 29.5433 10.0291 29.5433 10.5371C29.5433 10.999 29.559 11.5532 29.5904 12.1998C29.6375 12.8464 29.7003 13.5007 29.7788 14.1627C29.8573 14.8246 29.9436 15.4173 30.0378 15.9408C30.132 16.4642 30.2262 16.8337 30.3204 17.0492C30.3204 16.9568 30.3596 16.7182 30.4381 16.3333C30.5323 15.9331 30.65 15.4404 30.7913 14.8554C30.9326 14.2704 31.0817 13.6392 31.2387 12.9618C31.4113 12.2845 31.5762 11.6225 31.7331 10.9759C31.9058 10.3293 32.0549 9.75201 32.1805 9.24398C32.3061 8.73594 32.4003 8.35107 32.4631 8.08936C32.6043 7.50435 32.7378 7.07329 32.8633 6.79619C32.9889 6.51908 33.1538 6.38052 33.3578 6.38052C33.6718 6.38052 33.9622 6.55756 34.229 6.91165C34.5116 7.26573 34.6529 7.68139 34.6529 8.15864C34.6529 8.31258 34.645 8.47423 34.6293 8.64358C34.6293 8.79752 34.6293 8.95917 34.6293 9.12851C34.6293 9.74431 34.6607 10.4217 34.7235 11.1606C34.7863 11.8996 34.8726 12.6078 34.9825 13.2851C35.0924 13.9471 35.2258 14.4936 35.3828 14.9247C35.5555 15.3558 35.7438 15.5713 35.9479 15.5713C36.2148 15.5713 36.5836 15.1479 37.0546 14.3012C37.1645 14.1165 37.29 13.8471 37.4313 13.493C37.5883 13.1235 37.7374 12.7925 37.8787 12.5C38.02 12.2075 38.1142 12.0612 38.1612 12.0612C38.2083 12.0612 38.2319 12.1536 38.2319 12.3384C38.2319 12.5385 38.1848 12.7848 38.0906 13.0773C37.9964 13.3698 37.8865 13.6546 37.761 13.9317C37.6511 14.1934 37.5647 14.3936 37.5019 14.5321C37.031 15.4404 36.5915 16.0793 36.1834 16.4488C35.7909 16.8183 35.4377 17.003 35.1238 17.003C34.8098 17.003 34.5194 16.8491 34.2526 16.5412C34.0485 16.3102 33.8758 15.9254 33.7346 15.3865C33.609 14.8477 33.4991 14.2473 33.4049 13.5853C33.3107 12.9234 33.2244 12.2922 33.1459 11.6918C33.0831 11.076 33.0203 10.5679 32.9575 10.1677C32.8947 9.7674 32.8241 9.56727 32.7456 9.56727C32.6828 9.56727 32.5965 9.75971 32.4866 10.1446C32.3767 10.5141 32.259 11.0067 32.1334 11.6225C32.0078 12.2229 31.8823 12.8695 31.7567 13.5623C31.6468 14.255 31.5369 14.9247 31.427 15.5713C31.3328 16.2179 31.2544 16.7721 31.1916 17.2339C31.1288 17.6804 31.0974 17.9652 31.0974 18.0884C31.0974 18.3809 31.011 18.581 30.8384 18.6888C30.6657 18.7965 30.4381 18.8504 30.1555 18.8504C30.0927 18.8504 30.0221 18.8504 29.9436 18.8504C29.8651 18.8504 29.7866 18.8427 29.7082 18.8273C29.4884 18.8119 29.2843 18.5348 29.096 17.996C28.9233 17.4572 28.7585 16.7644 28.6015 15.9177C28.4602 15.0556 28.3346 14.1319 28.2247 13.1466C28.1306 12.1459 28.0521 11.1683 27.9893 10.2139C27.9265 9.24398 27.8794 8.39726 27.848 7.6737C27.5184 8.61279 27.2201 9.63655 26.9533 10.745C26.6864 11.838 26.4588 12.9388 26.2704 14.0472C26.0977 15.1556 25.9565 16.2102 25.8466 17.2108C25.7524 18.2115 25.7053 19.089 25.7053 19.8434C25.7053 19.9665 25.7132 20.0435 25.7288 20.0743C25.7288 20.0897 25.6975 20.0974 25.6347 20.0974Z"/><path d="M49.3461 24C48.6711 24 48.1452 23.7845 47.7685 23.3534C47.4074 22.9378 47.1563 22.3758 47.015 21.6677C46.8737 20.9749 46.8031 20.2129 46.8031 19.3815C46.8031 18.8427 46.8188 18.2577 46.8502 17.6265C46.8973 16.9953 46.96 16.3333 47.0385 15.6406C46.7089 15.7329 46.3871 15.8176 46.0731 15.8946C45.7592 15.9562 45.4452 16.0023 45.1313 16.0331C44.9272 16.0331 44.6996 16.01 44.4484 15.9639C44.1973 15.9023 43.9854 15.8176 43.8127 15.7098C43.6243 15.6021 43.5301 15.4789 43.5301 15.3404C43.5301 15.1864 43.64 15.0479 43.8598 14.9247C44.0168 14.8323 44.2522 14.74 44.5662 14.6476C44.8958 14.5552 45.1941 14.4782 45.4609 14.4167C45.7278 14.3551 45.8612 14.3243 45.8612 14.3243C45.8769 14.3243 45.8926 14.3243 45.9083 14.3243C45.924 14.3089 45.9319 14.3012 45.9319 14.3012C45.9476 14.3012 45.9554 14.3089 45.9554 14.3243C45.9711 14.3243 45.979 14.3243 45.979 14.3243C45.979 14.3859 45.8926 14.4936 45.7199 14.6476C45.5473 14.8015 45.4609 14.917 45.4609 14.994C45.4609 15.0248 45.4845 15.0402 45.5316 15.0402C45.5787 15.0402 45.6729 15.0171 45.8141 14.9709C46.0339 14.8939 46.2537 14.8169 46.4734 14.74C46.7089 14.6476 46.9443 14.5552 47.1798 14.4629C47.3211 13.3544 47.4781 12.246 47.6507 11.1376C47.8391 10.0137 48.0353 8.95147 48.2394 7.9508C48.4435 6.93474 48.6318 6.05723 48.8045 5.31827C48.6946 5.42604 48.5847 5.59538 48.4748 5.8263C48.3807 6.05723 48.2865 6.27276 48.1923 6.47289C48.0981 6.67303 48.0039 6.77309 47.9097 6.77309C47.8783 6.77309 47.8626 6.7423 47.8626 6.68072C47.8626 6.61914 47.9097 6.4575 48.0039 6.19578C48.0981 5.93407 48.2237 5.63387 48.3807 5.29518C48.5376 4.95649 48.7025 4.6255 48.8751 4.30221C49.0635 3.96352 49.244 3.68641 49.4167 3.47088C49.6051 3.25535 49.7699 3.14759 49.9112 3.14759C50.0681 3.14759 50.2487 3.20917 50.4527 3.33233C50.6568 3.45549 50.8373 3.59404 50.9943 3.74799C51.167 3.88655 51.2533 4.00201 51.2533 4.09438C51.2533 4.14056 51.2454 4.17135 51.2298 4.18675C50.6332 5.14123 50.076 6.41901 49.558 8.02008C49.04 9.60576 48.6475 11.5224 48.3807 13.7701C48.365 13.8163 48.3571 13.8778 48.3571 13.9548C49.2362 13.5546 50.1309 13.1081 51.0414 12.6155C51.9675 12.1074 52.8466 11.5763 53.6786 11.0221C54.5262 10.4679 55.2797 9.90596 55.939 9.33635C56.614 8.75134 57.1399 8.17403 57.5166 7.60442C57.909 7.03481 58.1052 6.48829 58.1052 5.96486C58.1052 5.39525 57.8541 4.91031 57.3518 4.51004C56.8494 4.10977 56.1823 3.78648 55.3503 3.54016C54.5184 3.27845 53.6079 3.08601 52.619 2.96285C51.63 2.83969 50.6489 2.77811 49.6757 2.77811C48.8437 2.77811 48.0589 2.8089 47.3211 2.87048C46.599 2.91667 45.9868 2.93976 45.4845 2.93976C45.1391 2.93976 44.9665 2.88588 44.9665 2.77811C44.9665 2.71653 45.0528 2.63186 45.2255 2.5241C45.979 2.09304 46.6853 1.80054 47.3446 1.64659C48.0039 1.49264 48.624 1.41566 49.2048 1.41566C49.7856 1.41566 50.492 1.47724 51.3239 1.6004C52.1559 1.70817 53.0114 1.87751 53.8905 2.10843C54.7852 2.33936 55.6172 2.63186 56.3864 2.98594C57.1555 3.32463 57.7834 3.7326 58.2701 4.20984C58.7567 4.67169 59 5.19511 59 5.78012C59 6.47289 58.7488 7.25034 58.2465 8.11245C57.7442 8.95917 56.9907 9.84438 55.9861 10.7681C55.5623 11.1683 54.9422 11.6456 54.1259 12.1998C53.3254 12.7386 52.4149 13.2851 51.3946 13.8394C50.3742 14.3782 49.3225 14.8477 48.2394 15.248C48.2237 15.6021 48.208 15.9639 48.1923 16.3333C48.1923 16.7028 48.1923 17.0646 48.1923 17.4187C48.1923 18.8812 48.2708 20.0435 48.4278 20.9056C48.5847 21.7831 48.8045 22.4066 49.0871 22.7761C49.3696 23.1456 49.6914 23.3303 50.0524 23.3303C50.3193 23.3303 50.5391 23.2764 50.7117 23.1687C50.9001 23.0763 51.0414 23.0301 51.1356 23.0301C51.2141 23.0301 51.2533 23.0686 51.2533 23.1456C51.2533 23.1764 51.1905 23.261 51.0649 23.3996C50.9394 23.5535 50.7353 23.6921 50.4527 23.8153C50.1702 23.9384 49.8013 24 49.3461 24Z"/></mask><path fill="#7510A7" d="M11.3603 20.3976C10.6853 20.3976 9.96326 20.3052 9.19408 20.1205C8.4249 19.9511 7.67142 19.7125 6.93364 19.4046C6.21156 19.0813 5.56011 18.7195 4.97931 18.3193C4.4142 17.919 3.99037 17.488 3.70781 17.0261C3.58223 17.0261 3.44096 17.0338 3.28398 17.0492C3.12701 17.0646 2.96218 17.0723 2.78951 17.0723C2.60114 17.0723 2.36568 17.0415 2.08313 16.9799C1.80057 16.9183 1.54941 16.8106 1.32965 16.6566C1.10988 16.5027 1 16.2948 1 16.0331C1 15.91 1.08634 15.8022 1.25901 15.7098C1.44738 15.6175 1.79272 15.5713 2.29504 15.5713C3.26828 15.5713 3.94328 15.8638 4.32002 16.4488C4.83803 16.5104 5.38744 16.5566 5.96825 16.5873C6.54906 16.6181 7.14556 16.6335 7.75776 16.6335C8.38566 16.6335 9.01356 16.6181 9.64146 16.5873C10.2851 16.5566 10.9208 16.5027 11.5487 16.4257C11.2034 15.8869 10.8109 15.3481 10.3714 14.8092C9.94756 14.2704 9.61006 13.8317 9.3589 13.493C8.7781 12.7232 8.20514 11.9304 7.64003 11.1145C7.07492 10.2831 6.53336 9.34404 6.01534 8.29719C5.81127 7.89692 5.70924 7.48896 5.70924 7.07329C5.70924 6.4575 5.90546 5.88019 6.2979 5.34137C6.69033 4.78715 7.1848 4.27912 7.78131 3.81727C8.37781 3.35542 9.00571 2.95515 9.665 2.61647C10.34 2.26238 10.9443 1.96988 11.4781 1.73896C12.0432 1.50803 12.6161 1.33099 13.1969 1.20783C13.7777 1.06928 14.335 1 14.8687 1C15.1827 1 15.4809 1.02309 15.7635 1.06928C16.1559 1.13086 16.5326 1.33869 16.8937 1.69277C17.2704 2.03146 17.5844 2.43942 17.8355 2.91667C18.0867 3.37851 18.2123 3.84036 18.2123 4.30221C18.2123 4.73327 18.1024 5.2336 17.8826 5.80321C17.6786 6.35743 17.4117 6.92704 17.0821 7.51205C16.7524 8.08166 16.3992 8.62048 16.0225 9.12851C15.6457 9.62115 15.2925 10.0214 14.9629 10.3293C14.6489 10.6372 14.3978 10.7912 14.2094 10.7912C13.9426 10.7912 13.6993 10.6526 13.4795 10.3755C13.2754 10.0984 13.1734 9.88286 13.1734 9.72892C13.1734 9.63655 13.1969 9.58266 13.244 9.56727C13.6679 9.25937 14.1152 8.84371 14.5862 8.32028C15.0571 7.79685 15.4888 7.23494 15.8812 6.63454C16.2893 6.01874 16.619 5.41834 16.8701 4.83333C17.137 4.23293 17.2704 3.7172 17.2704 3.28615C17.2704 2.79351 17.0821 2.46252 16.7053 2.29317C16.3443 2.10843 15.889 2.01606 15.3396 2.01606C14.8216 2.01606 14.2722 2.10074 13.6914 2.27008C13.1106 2.42403 12.6004 2.60877 12.1609 2.8243C10.7324 3.51707 9.63361 4.18675 8.86443 4.83333C8.09526 5.46453 7.56154 6.05723 7.26329 6.61145C6.98074 7.16566 6.83946 7.6737 6.83946 8.13554C6.83946 8.61278 7.07492 9.25167 7.54584 10.0522C8.01677 10.8373 8.81734 11.8996 9.94756 13.239C10.3714 13.747 10.8266 14.2627 11.3132 14.7861C11.8156 15.2942 12.2708 15.7868 12.6789 16.2641C13.4167 16.1409 14.0995 15.9869 14.7274 15.8022C15.371 15.6175 15.9361 15.4019 16.4228 15.1556C16.4385 15.1402 16.462 15.1325 16.4934 15.1325C16.5405 15.1325 16.564 15.1556 16.564 15.2018C16.564 15.325 16.5091 15.4173 16.3992 15.4789C16.0539 15.7252 15.5908 15.9485 15.01 16.1486C14.4292 16.3487 13.7699 16.5258 13.0321 16.6797C13.3461 17.0492 13.5972 17.4033 13.7856 17.742C13.974 18.0653 14.0681 18.3578 14.0681 18.6195C14.0681 19.2507 13.8091 19.7048 13.2911 19.9819C12.7888 20.259 12.1452 20.3976 11.3603 20.3976ZM10.2066 19.5894C10.8188 19.5894 11.3211 19.4816 11.7135 19.2661C12.1217 19.0505 12.3257 18.7195 12.3257 18.2731C12.3257 18.0884 12.2786 17.8805 12.1844 17.6496C12.0903 17.4033 11.9647 17.1493 11.8077 16.8876C10.3478 17.1031 8.84089 17.2108 7.28684 17.2108C6.37638 17.2108 5.50517 17.1647 4.67321 17.0723C5.04995 17.5649 5.54442 18.0037 6.15662 18.3886C6.78452 18.7734 7.45166 19.0736 8.15805 19.2892C8.88013 19.4893 9.56297 19.5894 10.2066 19.5894Z"/><path fill="#7510A7" d="M25.6347 20.0974C25.5405 20.0974 25.3757 20.0589 25.1402 19.9819C24.9047 19.9203 24.685 19.828 24.4809 19.7048C24.2768 19.5817 24.1591 19.4431 24.1277 19.2892C24.0492 18.8273 23.9864 18.2962 23.9393 17.6958C23.9079 17.08 23.8922 16.4257 23.8922 15.7329C23.8922 14.6707 23.9315 13.5699 24.01 12.4307C24.0885 11.2915 24.1826 10.2139 24.2925 9.19779C24.4181 8.18173 24.5515 7.3427 24.6928 6.68072C24.5515 6.81928 24.3946 6.97323 24.2219 7.14257C24.0492 7.29652 23.9393 7.37349 23.8922 7.37349C23.8451 7.37349 23.8216 7.33501 23.8216 7.25803C23.8216 7.18106 23.9001 6.98092 24.0571 6.65763C24.214 6.31894 24.4024 5.95716 24.6222 5.57229C24.8419 5.17202 25.0382 4.82564 25.2108 4.53313C25.3835 4.24063 25.4934 4.09438 25.5405 4.09438C25.6347 4.09438 25.7759 4.14826 25.9643 4.25603C26.1527 4.34839 26.3254 4.46386 26.4823 4.60241C26.655 4.74096 26.7413 4.87182 26.7413 4.99498V5.01807C26.3489 5.66466 26.0349 6.4421 25.7995 7.3504C25.5797 8.24331 25.4227 9.21319 25.3286 10.26C25.2501 11.2915 25.2108 12.3461 25.2108 13.4237C25.2108 14.0241 25.2187 14.6168 25.2344 15.2018C25.2658 15.7868 25.2972 16.3564 25.3286 16.9106C25.3757 16.4488 25.462 15.8407 25.5876 15.0863C25.7288 14.332 25.8858 13.5238 26.0585 12.6616C26.2469 11.7841 26.4352 10.9143 26.6236 10.0522C26.812 9.1747 26.9925 8.38186 27.1652 7.6737C27.3378 6.96553 27.4713 6.41131 27.5655 6.01104C27.7852 5.13353 27.9736 4.46386 28.1306 4.00201C28.3032 3.52477 28.4524 3.20147 28.5779 3.03213C28.7035 2.84739 28.8056 2.75502 28.884 2.75502C28.8997 2.75502 28.9939 2.832 29.1666 2.98594C29.355 3.1245 29.5355 3.30154 29.7082 3.51707C29.8808 3.7326 29.9672 3.95582 29.9672 4.18675C29.9672 4.20214 29.9593 4.22523 29.9436 4.25603C29.9436 4.27142 29.9436 4.29451 29.9436 4.3253C29.9279 4.44846 29.8965 4.74096 29.8494 5.20281C29.8023 5.66466 29.7552 6.21888 29.7082 6.86546C29.6611 7.49665 29.6218 8.14324 29.5904 8.80522C29.559 9.45181 29.5433 10.0291 29.5433 10.5371C29.5433 10.999 29.559 11.5532 29.5904 12.1998C29.6375 12.8464 29.7003 13.5007 29.7788 14.1627C29.8573 14.8246 29.9436 15.4173 30.0378 15.9408C30.132 16.4642 30.2262 16.8337 30.3204 17.0492C30.3204 16.9568 30.3596 16.7182 30.4381 16.3333C30.5323 15.9331 30.65 15.4404 30.7913 14.8554C30.9326 14.2704 31.0817 13.6392 31.2387 12.9618C31.4113 12.2845 31.5762 11.6225 31.7331 10.9759C31.9058 10.3293 32.0549 9.75201 32.1805 9.24398C32.3061 8.73594 32.4003 8.35107 32.4631 8.08936C32.6043 7.50435 32.7378 7.07329 32.8633 6.79619C32.9889 6.51908 33.1538 6.38052 33.3578 6.38052C33.6718 6.38052 33.9622 6.55756 34.229 6.91165C34.5116 7.26573 34.6529 7.68139 34.6529 8.15864C34.6529 8.31258 34.645 8.47423 34.6293 8.64358C34.6293 8.79752 34.6293 8.95917 34.6293 9.12851C34.6293 9.74431 34.6607 10.4217 34.7235 11.1606C34.7863 11.8996 34.8726 12.6078 34.9825 13.2851C35.0924 13.9471 35.2258 14.4936 35.3828 14.9247C35.5555 15.3558 35.7438 15.5713 35.9479 15.5713C36.2148 15.5713 36.5836 15.1479 37.0546 14.3012C37.1645 14.1165 37.29 13.8471 37.4313 13.493C37.5883 13.1235 37.7374 12.7925 37.8787 12.5C38.02 12.2075 38.1142 12.0612 38.1612 12.0612C38.2083 12.0612 38.2319 12.1536 38.2319 12.3384C38.2319 12.5385 38.1848 12.7848 38.0906 13.0773C37.9964 13.3698 37.8865 13.6546 37.761 13.9317C37.6511 14.1934 37.5647 14.3936 37.5019 14.5321C37.031 15.4404 36.5915 16.0793 36.1834 16.4488C35.7909 16.8183 35.4377 17.003 35.1238 17.003C34.8098 17.003 34.5194 16.8491 34.2526 16.5412C34.0485 16.3102 33.8758 15.9254 33.7346 15.3865C33.609 14.8477 33.4991 14.2473 33.4049 13.5853C33.3107 12.9234 33.2244 12.2922 33.1459 11.6918C33.0831 11.076 33.0203 10.5679 32.9575 10.1677C32.8947 9.7674 32.8241 9.56727 32.7456 9.56727C32.6828 9.56727 32.5965 9.75971 32.4866 10.1446C32.3767 10.5141 32.259 11.0067 32.1334 11.6225C32.0078 12.2229 31.8823 12.8695 31.7567 13.5623C31.6468 14.255 31.5369 14.9247 31.427 15.5713C31.3328 16.2179 31.2544 16.7721 31.1916 17.2339C31.1288 17.6804 31.0974 17.9652 31.0974 18.0884C31.0974 18.3809 31.011 18.581 30.8384 18.6888C30.6657 18.7965 30.4381 18.8504 30.1555 18.8504C30.0927 18.8504 30.0221 18.8504 29.9436 18.8504C29.8651 18.8504 29.7866 18.8427 29.7082 18.8273C29.4884 18.8119 29.2843 18.5348 29.096 17.996C28.9233 17.4572 28.7585 16.7644 28.6015 15.9177C28.4602 15.0556 28.3346 14.1319 28.2247 13.1466C28.1306 12.1459 28.0521 11.1683 27.9893 10.2139C27.9265 9.24398 27.8794 8.39726 27.848 7.6737C27.5184 8.61279 27.2201 9.63655 26.9533 10.745C26.6864 11.838 26.4588 12.9388 26.2704 14.0472C26.0977 15.1556 25.9565 16.2102 25.8466 17.2108C25.7524 18.2115 25.7053 19.089 25.7053 19.8434C25.7053 19.9665 25.7132 20.0435 25.7288 20.0743C25.7288 20.0897 25.6975 20.0974 25.6347 20.0974Z"/><path fill="#7510A7" d="M49.3461 24C48.6711 24 48.1452 23.7845 47.7685 23.3534C47.4074 22.9378 47.1563 22.3758 47.015 21.6677C46.8737 20.9749 46.8031 20.2129 46.8031 19.3815C46.8031 18.8427 46.8188 18.2577 46.8502 17.6265C46.8973 16.9953 46.96 16.3333 47.0385 15.6406C46.7089 15.7329 46.3871 15.8176 46.0731 15.8946C45.7592 15.9562 45.4452 16.0023 45.1313 16.0331C44.9272 16.0331 44.6996 16.01 44.4484 15.9639C44.1973 15.9023 43.9854 15.8176 43.8127 15.7098C43.6243 15.6021 43.5301 15.4789 43.5301 15.3404C43.5301 15.1864 43.64 15.0479 43.8598 14.9247C44.0168 14.8323 44.2522 14.74 44.5662 14.6476C44.8958 14.5552 45.1941 14.4782 45.4609 14.4167C45.7278 14.3551 45.8612 14.3243 45.8612 14.3243C45.8769 14.3243 45.8926 14.3243 45.9083 14.3243C45.924 14.3089 45.9319 14.3012 45.9319 14.3012C45.9476 14.3012 45.9554 14.3089 45.9554 14.3243C45.9711 14.3243 45.979 14.3243 45.979 14.3243C45.979 14.3859 45.8926 14.4936 45.7199 14.6476C45.5473 14.8015 45.4609 14.917 45.4609 14.994C45.4609 15.0248 45.4845 15.0402 45.5316 15.0402C45.5787 15.0402 45.6729 15.0171 45.8141 14.9709C46.0339 14.8939 46.2537 14.8169 46.4734 14.74C46.7089 14.6476 46.9443 14.5552 47.1798 14.4629C47.3211 13.3544 47.4781 12.246 47.6507 11.1376C47.8391 10.0137 48.0353 8.95147 48.2394 7.9508C48.4435 6.93474 48.6318 6.05723 48.8045 5.31827C48.6946 5.42604 48.5847 5.59538 48.4748 5.8263C48.3807 6.05723 48.2865 6.27276 48.1923 6.47289C48.0981 6.67303 48.0039 6.77309 47.9097 6.77309C47.8783 6.77309 47.8626 6.7423 47.8626 6.68072C47.8626 6.61914 47.9097 6.4575 48.0039 6.19578C48.0981 5.93407 48.2237 5.63387 48.3807 5.29518C48.5376 4.95649 48.7025 4.6255 48.8751 4.30221C49.0635 3.96352 49.244 3.68641 49.4167 3.47088C49.6051 3.25535 49.7699 3.14759 49.9112 3.14759C50.0681 3.14759 50.2487 3.20917 50.4527 3.33233C50.6568 3.45549 50.8373 3.59404 50.9943 3.74799C51.167 3.88655 51.2533 4.00201 51.2533 4.09438C51.2533 4.14056 51.2454 4.17135 51.2298 4.18675C50.6332 5.14123 50.076 6.41901 49.558 8.02008C49.04 9.60576 48.6475 11.5224 48.3807 13.7701C48.365 13.8163 48.3571 13.8778 48.3571 13.9548C49.2362 13.5546 50.1309 13.1081 51.0414 12.6155C51.9675 12.1074 52.8466 11.5763 53.6786 11.0221C54.5262 10.4679 55.2797 9.90596 55.939 9.33635C56.614 8.75134 57.1399 8.17403 57.5166 7.60442C57.909 7.03481 58.1052 6.48829 58.1052 5.96486C58.1052 5.39525 57.8541 4.91031 57.3518 4.51004C56.8494 4.10977 56.1823 3.78648 55.3503 3.54016C54.5184 3.27845 53.6079 3.08601 52.619 2.96285C51.63 2.83969 50.6489 2.77811 49.6757 2.77811C48.8437 2.77811 48.0589 2.8089 47.3211 2.87048C46.599 2.91667 45.9868 2.93976 45.4845 2.93976C45.1391 2.93976 44.9665 2.88588 44.9665 2.77811C44.9665 2.71653 45.0528 2.63186 45.2255 2.5241C45.979 2.09304 46.6853 1.80054 47.3446 1.64659C48.0039 1.49264 48.624 1.41566 49.2048 1.41566C49.7856 1.41566 50.492 1.47724 51.3239 1.6004C52.1559 1.70817 53.0114 1.87751 53.8905 2.10843C54.7852 2.33936 55.6172 2.63186 56.3864 2.98594C57.1555 3.32463 57.7834 3.7326 58.2701 4.20984C58.7567 4.67169 59 5.19511 59 5.78012C59 6.47289 58.7488 7.25034 58.2465 8.11245C57.7442 8.95917 56.9907 9.84438 55.9861 10.7681C55.5623 11.1683 54.9422 11.6456 54.1259 12.1998C53.3254 12.7386 52.4149 13.2851 51.3946 13.8394C50.3742 14.3782 49.3225 14.8477 48.2394 15.248C48.2237 15.6021 48.208 15.9639 48.1923 16.3333C48.1923 16.7028 48.1923 17.0646 48.1923 17.4187C48.1923 18.8812 48.2708 20.0435 48.4278 20.9056C48.5847 21.7831 48.8045 22.4066 49.0871 22.7761C49.3696 23.1456 49.6914 23.3303 50.0524 23.3303C50.3193 23.3303 50.5391 23.2764 50.7117 23.1687C50.9001 23.0763 51.0414 23.0301 51.1356 23.0301C51.2141 23.0301 51.2533 23.0686 51.2533 23.1456C51.2533 23.1764 51.1905 23.261 51.0649 23.3996C50.9394 23.5535 50.7353 23.6921 50.4527 23.8153C50.1702 23.9384 49.8013 24 49.3461 24Z"/><path stroke="#7510A7" stroke-width="2" d="M11.3603 20.3976C10.6853 20.3976 9.96326 20.3052 9.19408 20.1205C8.4249 19.9511 7.67142 19.7125 6.93364 19.4046C6.21156 19.0813 5.56011 18.7195 4.97931 18.3193C4.4142 17.919 3.99037 17.488 3.70781 17.0261C3.58223 17.0261 3.44096 17.0338 3.28398 17.0492C3.12701 17.0646 2.96218 17.0723 2.78951 17.0723C2.60114 17.0723 2.36568 17.0415 2.08313 16.9799C1.80057 16.9183 1.54941 16.8106 1.32965 16.6566C1.10988 16.5027 1 16.2948 1 16.0331C1 15.91 1.08634 15.8022 1.25901 15.7098C1.44738 15.6175 1.79272 15.5713 2.29504 15.5713C3.26828 15.5713 3.94328 15.8638 4.32002 16.4488C4.83803 16.5104 5.38744 16.5566 5.96825 16.5873C6.54906 16.6181 7.14556 16.6335 7.75776 16.6335C8.38566 16.6335 9.01356 16.6181 9.64146 16.5873C10.2851 16.5566 10.9208 16.5027 11.5487 16.4257C11.2034 15.8869 10.8109 15.3481 10.3714 14.8092C9.94756 14.2704 9.61006 13.8317 9.3589 13.493C8.7781 12.7232 8.20514 11.9304 7.64003 11.1145C7.07492 10.2831 6.53336 9.34404 6.01534 8.29719C5.81127 7.89692 5.70924 7.48896 5.70924 7.07329C5.70924 6.4575 5.90546 5.88019 6.2979 5.34137C6.69033 4.78715 7.1848 4.27912 7.78131 3.81727C8.37781 3.35542 9.00571 2.95515 9.665 2.61647C10.34 2.26238 10.9443 1.96988 11.4781 1.73896C12.0432 1.50803 12.6161 1.33099 13.1969 1.20783C13.7777 1.06928 14.335 1 14.8687 1C15.1827 1 15.4809 1.02309 15.7635 1.06928C16.1559 1.13086 16.5326 1.33869 16.8937 1.69277C17.2704 2.03146 17.5844 2.43942 17.8355 2.91667C18.0867 3.37851 18.2123 3.84036 18.2123 4.30221C18.2123 4.73327 18.1024 5.2336 17.8826 5.80321C17.6786 6.35743 17.4117 6.92704 17.0821 7.51205C16.7524 8.08166 16.3992 8.62048 16.0225 9.12851C15.6457 9.62115 15.2925 10.0214 14.9629 10.3293C14.6489 10.6372 14.3978 10.7912 14.2094 10.7912C13.9426 10.7912 13.6993 10.6526 13.4795 10.3755C13.2754 10.0984 13.1734 9.88286 13.1734 9.72892C13.1734 9.63655 13.1969 9.58266 13.244 9.56727C13.6679 9.25937 14.1152 8.84371 14.5862 8.32028C15.0571 7.79685 15.4888 7.23494 15.8812 6.63454C16.2893 6.01874 16.619 5.41834 16.8701 4.83333C17.137 4.23293 17.2704 3.7172 17.2704 3.28615C17.2704 2.79351 17.0821 2.46252 16.7053 2.29317C16.3443 2.10843 15.889 2.01606 15.3396 2.01606C14.8216 2.01606 14.2722 2.10074 13.6914 2.27008C13.1106 2.42403 12.6004 2.60877 12.1609 2.8243C10.7324 3.51707 9.63361 4.18675 8.86443 4.83333C8.09526 5.46453 7.56154 6.05723 7.26329 6.61145C6.98074 7.16566 6.83946 7.6737 6.83946 8.13554C6.83946 8.61278 7.07492 9.25167 7.54584 10.0522C8.01677 10.8373 8.81734 11.8996 9.94756 13.239C10.3714 13.747 10.8266 14.2627 11.3132 14.7861C11.8156 15.2942 12.2708 15.7868 12.6789 16.2641C13.4167 16.1409 14.0995 15.9869 14.7274 15.8022C15.371 15.6175 15.9361 15.4019 16.4228 15.1556C16.4385 15.1402 16.462 15.1325 16.4934 15.1325C16.5405 15.1325 16.564 15.1556 16.564 15.2018C16.564 15.325 16.5091 15.4173 16.3992 15.4789C16.0539 15.7252 15.5908 15.9485 15.01 16.1486C14.4292 16.3487 13.7699 16.5258 13.0321 16.6797C13.3461 17.0492 13.5972 17.4033 13.7856 17.742C13.974 18.0653 14.0681 18.3578 14.0681 18.6195C14.0681 19.2507 13.8091 19.7048 13.2911 19.9819C12.7888 20.259 12.1452 20.3976 11.3603 20.3976ZM10.2066 19.5894C10.8188 19.5894 11.3211 19.4816 11.7135 19.2661C12.1217 19.0505 12.3257 18.7195 12.3257 18.2731C12.3257 18.0884 12.2786 17.8805 12.1844 17.6496C12.0903 17.4033 11.9647 17.1493 11.8077 16.8876C10.3478 17.1031 8.84089 17.2108 7.28684 17.2108C6.37638 17.2108 5.50517 17.1647 4.67321 17.0723C5.04995 17.5649 5.54442 18.0037 6.15662 18.3886C6.78452 18.7734 7.45166 19.0736 8.15805 19.2892C8.88013 19.4893 9.56297 19.5894 10.2066 19.5894Z" mask="url(#path-1-outside-1_27_58)"/><path stroke="#7510A7" stroke-width="2" d="M25.6347 20.0974C25.5405 20.0974 25.3757 20.0589 25.1402 19.9819C24.9047 19.9203 24.685 19.828 24.4809 19.7048C24.2768 19.5817 24.1591 19.4431 24.1277 19.2892C24.0492 18.8273 23.9864 18.2962 23.9393 17.6958C23.9079 17.08 23.8922 16.4257 23.8922 15.7329C23.8922 14.6707 23.9315 13.5699 24.01 12.4307C24.0885 11.2915 24.1826 10.2139 24.2925 9.19779C24.4181 8.18173 24.5515 7.3427 24.6928 6.68072C24.5515 6.81928 24.3946 6.97323 24.2219 7.14257C24.0492 7.29652 23.9393 7.37349 23.8922 7.37349C23.8451 7.37349 23.8216 7.33501 23.8216 7.25803C23.8216 7.18106 23.9001 6.98092 24.0571 6.65763C24.214 6.31894 24.4024 5.95716 24.6222 5.57229C24.8419 5.17202 25.0382 4.82564 25.2108 4.53313C25.3835 4.24063 25.4934 4.09438 25.5405 4.09438C25.6347 4.09438 25.7759 4.14826 25.9643 4.25603C26.1527 4.34839 26.3254 4.46386 26.4823 4.60241C26.655 4.74096 26.7413 4.87182 26.7413 4.99498V5.01807C26.3489 5.66466 26.0349 6.4421 25.7995 7.3504C25.5797 8.24331 25.4227 9.21319 25.3286 10.26C25.2501 11.2915 25.2108 12.3461 25.2108 13.4237C25.2108 14.0241 25.2187 14.6168 25.2344 15.2018C25.2658 15.7868 25.2972 16.3564 25.3286 16.9106C25.3757 16.4488 25.462 15.8407 25.5876 15.0863C25.7288 14.332 25.8858 13.5238 26.0585 12.6616C26.2469 11.7841 26.4352 10.9143 26.6236 10.0522C26.812 9.1747 26.9925 8.38186 27.1652 7.6737C27.3378 6.96553 27.4713 6.41131 27.5655 6.01104C27.7852 5.13353 27.9736 4.46386 28.1306 4.00201C28.3032 3.52477 28.4524 3.20147 28.5779 3.03213C28.7035 2.84739 28.8056 2.75502 28.884 2.75502C28.8997 2.75502 28.9939 2.832 29.1666 2.98594C29.355 3.1245 29.5355 3.30154 29.7082 3.51707C29.8808 3.7326 29.9672 3.95582 29.9672 4.18675C29.9672 4.20214 29.9593 4.22523 29.9436 4.25603C29.9436 4.27142 29.9436 4.29451 29.9436 4.3253C29.9279 4.44846 29.8965 4.74096 29.8494 5.20281C29.8023 5.66466 29.7552 6.21888 29.7082 6.86546C29.6611 7.49665 29.6218 8.14324 29.5904 8.80522C29.559 9.45181 29.5433 10.0291 29.5433 10.5371C29.5433 10.999 29.559 11.5532 29.5904 12.1998C29.6375 12.8464 29.7003 13.5007 29.7788 14.1627C29.8573 14.8246 29.9436 15.4173 30.0378 15.9408C30.132 16.4642 30.2262 16.8337 30.3204 17.0492C30.3204 16.9568 30.3596 16.7182 30.4381 16.3333C30.5323 15.9331 30.65 15.4404 30.7913 14.8554C30.9326 14.2704 31.0817 13.6392 31.2387 12.9618C31.4113 12.2845 31.5762 11.6225 31.7331 10.9759C31.9058 10.3293 32.0549 9.75201 32.1805 9.24398C32.3061 8.73594 32.4003 8.35107 32.4631 8.08936C32.6043 7.50435 32.7378 7.07329 32.8633 6.79619C32.9889 6.51908 33.1538 6.38052 33.3578 6.38052C33.6718 6.38052 33.9622 6.55756 34.229 6.91165C34.5116 7.26573 34.6529 7.68139 34.6529 8.15864C34.6529 8.31258 34.645 8.47423 34.6293 8.64358C34.6293 8.79752 34.6293 8.95917 34.6293 9.12851C34.6293 9.74431 34.6607 10.4217 34.7235 11.1606C34.7863 11.8996 34.8726 12.6078 34.9825 13.2851C35.0924 13.9471 35.2258 14.4936 35.3828 14.9247C35.5555 15.3558 35.7438 15.5713 35.9479 15.5713C36.2148 15.5713 36.5836 15.1479 37.0546 14.3012C37.1645 14.1165 37.29 13.8471 37.4313 13.493C37.5883 13.1235 37.7374 12.7925 37.8787 12.5C38.02 12.2075 38.1142 12.0612 38.1612 12.0612C38.2083 12.0612 38.2319 12.1536 38.2319 12.3384C38.2319 12.5385 38.1848 12.7848 38.0906 13.0773C37.9964 13.3698 37.8865 13.6546 37.761 13.9317C37.6511 14.1934 37.5647 14.3936 37.5019 14.5321C37.031 15.4404 36.5915 16.0793 36.1834 16.4488C35.7909 16.8183 35.4377 17.003 35.1238 17.003C34.8098 17.003 34.5194 16.8491 34.2526 16.5412C34.0485 16.3102 33.8758 15.9254 33.7346 15.3865C33.609 14.8477 33.4991 14.2473 33.4049 13.5853C33.3107 12.9234 33.2244 12.2922 33.1459 11.6918C33.0831 11.076 33.0203 10.5679 32.9575 10.1677C32.8947 9.7674 32.8241 9.56727 32.7456 9.56727C32.6828 9.56727 32.5965 9.75971 32.4866 10.1446C32.3767 10.5141 32.259 11.0067 32.1334 11.6225C32.0078 12.2229 31.8823 12.8695 31.7567 13.5623C31.6468 14.255 31.5369 14.9247 31.427 15.5713C31.3328 16.2179 31.2544 16.7721 31.1916 17.2339C31.1288 17.6804 31.0974 17.9652 31.0974 18.0884C31.0974 18.3809 31.011 18.581 30.8384 18.6888C30.6657 18.7965 30.4381 18.8504 30.1555 18.8504C30.0927 18.8504 30.0221 18.8504 29.9436 18.8504C29.8651 18.8504 29.7866 18.8427 29.7082 18.8273C29.4884 18.8119 29.2843 18.5348 29.096 17.996C28.9233 17.4572 28.7585 16.7644 28.6015 15.9177C28.4602 15.0556 28.3346 14.1319 28.2247 13.1466C28.1306 12.1459 28.0521 11.1683 27.9893 10.2139C27.9265 9.24398 27.8794 8.39726 27.848 7.6737C27.5184 8.61279 27.2201 9.63655 26.9533 10.745C26.6864 11.838 26.4588 12.9388 26.2704 14.0472C26.0977 15.1556 25.9565 16.2102 25.8466 17.2108C25.7524 18.2115 25.7053 19.089 25.7053 19.8434C25.7053 19.9665 25.7132 20.0435 25.7288 20.0743C25.7288 20.0897 25.6975 20.0974 25.6347 20.0974Z" mask="url(#path-1-outside-1_27_58)"/><path stroke="#7510A7" stroke-width="2" d="M49.3461 24C48.6711 24 48.1452 23.7845 47.7685 23.3534C47.4074 22.9378 47.1563 22.3758 47.015 21.6677C46.8737 20.9749 46.8031 20.2129 46.8031 19.3815C46.8031 18.8427 46.8188 18.2577 46.8502 17.6265C46.8973 16.9953 46.96 16.3333 47.0385 15.6406C46.7089 15.7329 46.3871 15.8176 46.0731 15.8946C45.7592 15.9562 45.4452 16.0023 45.1313 16.0331C44.9272 16.0331 44.6996 16.01 44.4484 15.9639C44.1973 15.9023 43.9854 15.8176 43.8127 15.7098C43.6243 15.6021 43.5301 15.4789 43.5301 15.3404C43.5301 15.1864 43.64 15.0479 43.8598 14.9247C44.0168 14.8323 44.2522 14.74 44.5662 14.6476C44.8958 14.5552 45.1941 14.4782 45.4609 14.4167C45.7278 14.3551 45.8612 14.3243 45.8612 14.3243C45.8769 14.3243 45.8926 14.3243 45.9083 14.3243C45.924 14.3089 45.9319 14.3012 45.9319 14.3012C45.9476 14.3012 45.9554 14.3089 45.9554 14.3243C45.9711 14.3243 45.979 14.3243 45.979 14.3243C45.979 14.3859 45.8926 14.4936 45.7199 14.6476C45.5473 14.8015 45.4609 14.917 45.4609 14.994C45.4609 15.0248 45.4845 15.0402 45.5316 15.0402C45.5787 15.0402 45.6729 15.0171 45.8141 14.9709C46.0339 14.8939 46.2537 14.8169 46.4734 14.74C46.7089 14.6476 46.9443 14.5552 47.1798 14.4629C47.3211 13.3544 47.4781 12.246 47.6507 11.1376C47.8391 10.0137 48.0353 8.95147 48.2394 7.9508C48.4435 6.93474 48.6318 6.05723 48.8045 5.31827C48.6946 5.42604 48.5847 5.59538 48.4748 5.8263C48.3807 6.05723 48.2865 6.27276 48.1923 6.47289C48.0981 6.67303 48.0039 6.77309 47.9097 6.77309C47.8783 6.77309 47.8626 6.7423 47.8626 6.68072C47.8626 6.61914 47.9097 6.4575 48.0039 6.19578C48.0981 5.93407 48.2237 5.63387 48.3807 5.29518C48.5376 4.95649 48.7025 4.6255 48.8751 4.30221C49.0635 3.96352 49.244 3.68641 49.4167 3.47088C49.6051 3.25535 49.7699 3.14759 49.9112 3.14759C50.0681 3.14759 50.2487 3.20917 50.4527 3.33233C50.6568 3.45549 50.8373 3.59404 50.9943 3.74799C51.167 3.88655 51.2533 4.00201 51.2533 4.09438C51.2533 4.14056 51.2454 4.17135 51.2298 4.18675C50.6332 5.14123 50.076 6.41901 49.558 8.02008C49.04 9.60576 48.6475 11.5224 48.3807 13.7701C48.365 13.8163 48.3571 13.8778 48.3571 13.9548C49.2362 13.5546 50.1309 13.1081 51.0414 12.6155C51.9675 12.1074 52.8466 11.5763 53.6786 11.0221C54.5262 10.4679 55.2797 9.90596 55.939 9.33635C56.614 8.75134 57.1399 8.17403 57.5166 7.60442C57.909 7.03481 58.1052 6.48829 58.1052 5.96486C58.1052 5.39525 57.8541 4.91031 57.3518 4.51004C56.8494 4.10977 56.1823 3.78648 55.3503 3.54016C54.5184 3.27845 53.6079 3.08601 52.619 2.96285C51.63 2.83969 50.6489 2.77811 49.6757 2.77811C48.8437 2.77811 48.0589 2.8089 47.3211 2.87048C46.599 2.91667 45.9868 2.93976 45.4845 2.93976C45.1391 2.93976 44.9665 2.88588 44.9665 2.77811C44.9665 2.71653 45.0528 2.63186 45.2255 2.5241C45.979 2.09304 46.6853 1.80054 47.3446 1.64659C48.0039 1.49264 48.624 1.41566 49.2048 1.41566C49.7856 1.41566 50.492 1.47724 51.3239 1.6004C52.1559 1.70817 53.0114 1.87751 53.8905 2.10843C54.7852 2.33936 55.6172 2.63186 56.3864 2.98594C57.1555 3.32463 57.7834 3.7326 58.2701 4.20984C58.7567 4.67169 59 5.19511 59 5.78012C59 6.47289 58.7488 7.25034 58.2465 8.11245C57.7442 8.95917 56.9907 9.84438 55.9861 10.7681C55.5623 11.1683 54.9422 11.6456 54.1259 12.1998C53.3254 12.7386 52.4149 13.2851 51.3946 13.8394C50.3742 14.3782 49.3225 14.8477 48.2394 15.248C48.2237 15.6021 48.208 15.9639 48.1923 16.3333C48.1923 16.7028 48.1923 17.0646 48.1923 17.4187C48.1923 18.8812 48.2708 20.0435 48.4278 20.9056C48.5847 21.7831 48.8045 22.4066 49.0871 22.7761C49.3696 23.1456 49.6914 23.3303 50.0524 23.3303C50.3193 23.3303 50.5391 23.2764 50.7117 23.1687C50.9001 23.0763 51.0414 23.0301 51.1356 23.0301C51.2141 23.0301 51.2533 23.0686 51.2533 23.1456C51.2533 23.1764 51.1905 23.261 51.0649 23.3996C50.9394 23.5535 50.7353 23.6921 50.4527 23.8153C50.1702 23.9384 49.8013 24 49.3461 24Z" mask="url(#path-1-outside-1_27_58)"/></svg>