<svg width="1509" height="561" viewBox="0 0 1509 561" fill="none" xmlns="http://www.w3.org/2000/svg">
<path d="M4.02567 274.464C2.78671 274.572 1.54803 274.68 0.309645 274.788C1.9004 274.649 3.59928 274.486 5.28135 274.315C15.6391 273.265 25.36 271.937 5.28135 274.315C4.87507 274.363 4.45659 274.413 4.02567 274.464C265.578 251.711 539.818 230.227 799.509 188.594C889.023 174.243 978.611 154.248 1057.74 122.425C1116.2 98.9113 1233.92 41.4851 1307.96 27.9319C1380.02 14.7398 1393.33 13.1373 1453.65 5.8741L1458.71 5.26426C1461.93 4.87665 1463.88 4.64124 1465 4.50625C1466.01 4.38299 1467.35 4.22214 1465 4.50625C1463.68 4.66789 1462.92 4.76495 1471.8 3.70987C1481.59 2.54627 1504.45 -2.29051 1505.26 4.49318L1508.76 33.9864C1509.29 38.4193 1505.56 40.1904 1500.02 40.634C1494.32 42.4117 1483.19 45.83 1464.24 51.8115C1426.71 67.8639 1378.19 61.4372 1301.14 93.5087C1224.09 125.58 1185.02 165.575 1185.02 165.575C1156.37 179.127 1168.02 184.908 1059.54 273.014C951.063 361.12 901.979 374.282 851.071 393.297C622.234 478.769 401.448 518.527 150.416 547.756C109.958 552.467 69.5214 556.939 28.9815 559.751C11.6601 560.953 4.99878 561.783 3.55007 549.589C2.76229 484.132 8.18699 476.421 6.26113 460.209C4.33526 443.998 7.09473 404.22 5.41737 390.101C3.74001 375.981 6.75893 343.844 4.64668 326.064C5.20653 314.862 5.33826 285.513 4.02567 274.464Z" fill="url(#paint0_linear_125_10)"/>
<defs>
<linearGradient id="paint0_linear_125_10" x1="619.688" y1="171.745" x2="749.726" y2="487.904" gradientUnits="userSpaceOnUse">
<stop stop-color="#CB60FC"/>
<stop offset="0.5694" stop-color="#CE64FF" stop-opacity="0.85765"/>
<stop offset="1" stop-color="#E09CFF" stop-opacity="0.75"/>
</linearGradient>
</defs>
</svg>
